<svg width="80" height="80" viewBox="0 0 80 80" fill="none" xmlns="http://www.w3.org/2000/svg">
<g clip-path="url(#clip0_1823_14858)">
<path d="M79.7441 0H-0.255859V80H79.7441V0Z" fill="white"/>
<path d="M79.7441 0H-0.255859V80H79.7441V0Z" fill="white"/>
<path fill-rule="evenodd" clip-rule="evenodd" d="M56.0545 30.0651C59.5758 30.0651 62.4303 27.2105 62.4303 23.6893C62.4303 20.168 59.5758 17.3135 56.0545 17.3135C52.5333 17.3135 49.6787 20.168 49.6787 23.6893C49.6787 27.2105 52.5333 30.0651 56.0545 30.0651Z" fill="#8055FA"/>
<path fill-rule="evenodd" clip-rule="evenodd" d="M56.0543 46.0784C59.5755 46.0784 62.4301 43.224 62.4301 39.7029C62.4301 36.1817 59.5755 33.3271 56.0543 33.3271C52.533 33.3271 49.6785 36.1817 49.6785 39.7029C49.6785 43.224 52.533 46.0784 56.0543 46.0784Z" fill="#7550FB"/>
<path fill-rule="evenodd" clip-rule="evenodd" d="M56.0543 62.6862C59.5755 62.6862 62.4301 59.8316 62.4301 56.3104C62.4301 52.7891 59.5755 49.9346 56.0543 49.9346C52.533 49.9346 49.6785 52.7891 49.6785 56.3104C49.6785 59.8316 52.533 62.6862 56.0543 62.6862Z" fill="#6A4AFC"/>
<path fill-rule="evenodd" clip-rule="evenodd" d="M39.4479 46.0784C42.969 46.0784 45.8235 43.224 45.8235 39.7029C45.8235 36.1817 42.969 33.3271 39.4479 33.3271C35.9267 33.3271 33.0723 36.1817 33.0723 39.7029C33.0723 43.224 35.9267 46.0784 39.4479 46.0784Z" fill="#6045FD"/>
<path fill-rule="evenodd" clip-rule="evenodd" d="M39.4476 62.6862C42.9688 62.6862 45.8232 59.8316 45.8232 56.3104C45.8232 52.7891 42.9688 49.9346 39.4476 49.9346C35.9265 49.9346 33.072 52.7891 33.072 56.3104C33.072 59.8316 35.9265 62.6862 39.4476 62.6862Z" fill="#553FFE"/>
<path fill-rule="evenodd" clip-rule="evenodd" d="M23.4337 62.6862C26.9549 62.6862 29.8095 59.8316 29.8095 56.3104C29.8095 52.7891 26.9549 49.9346 23.4337 49.9346C19.9124 49.9346 17.0579 52.7891 17.0579 56.3104C17.0579 59.8316 19.9124 62.6862 23.4337 62.6862Z" fill="#4A3AFF"/>
</g>
<defs>
<clipPath id="clip0_1823_14858">
<rect width="80" height="80" fill="white"/>
</clipPath>
</defs>
</svg>
