<?xml version="1.0" encoding="UTF-8"?>
<svg width="143px" height="49px" viewBox="0 0 143 49" version="1.1" xmlns="http://www.w3.org/2000/svg" xmlns:xlink="http://www.w3.org/1999/xlink">
    <title>company-logo-polkadot-defi-x-template</title>
    <g id="页面-1" stroke="none" stroke-width="1" fill="none" fill-rule="evenodd">
        <g id="company-logo-polkadot-defi-x-template" transform="translate(1.000000, 1.000000)">
            <g id="company-logo-pinterest-defi-x-template" transform="translate(9.000000, 11.000000)" fill="#A0A9BD" fill-rule="nonzero">
                <path d="M38.9638404,3 C37.5199502,3 36.128429,3.18296436 35.5617207,3.33763526 C34.7369078,3.57152785 34.5311721,3.93557034 34.3759352,4.69006254 L31.1028679,19.921374 C31.0504988,20.232602 31,20.4929018 31,20.7532016 C31,21.5076938 31.490025,22 32.2886534,22 C33.1658355,22 33.526808,21.4284722 33.7063591,20.54383 L34.6340399,16.2036136 C35.2774315,16.2809491 36.128429,16.3601708 37.340399,16.3601708 C42.676434,16.3601708 46,13.4497171 46,9.05668619 C46,5.20877594 43.3441397,3 38.9638404,3 Z M37.2113467,13.8646878 C36.3865337,13.8646878 35.7412719,13.8382806 35.1502494,13.7609451 L36.8765586,5.6765611 C37.4170823,5.59922565 38.2175811,5.49359674 39.0423941,5.49359674 C41.8778055,5.49359674 43.3216958,6.84602402 43.3216958,9.08120719 C43.3198255,11.9407327 41.2568579,13.8646878 37.2113467,13.8646878 L37.2113467,13.8646878 Z" id="形状"></path>
                <path d="M122.983407,17.3019291 C122.562375,17.3019291 122.288885,17.5495738 121.768893,18.1184388 C120.85126,19.0587707 120.280888,19.577389 119.562975,19.577389 C118.918833,19.577389 118.571572,19.0587707 118.571572,18.2171377 C118.571572,17.7469717 118.670532,17.1781068 118.794682,16.5607896 L119.712315,12.2575146 L122.465214,12.2575146 C123.332467,12.2575146 123.854259,11.7622252 123.854259,10.87214 C123.854259,10.3768506 123.532187,10.0071781 122.789085,10.0071781 L120.207117,10.0071781 L120.653339,8.00448632 C120.703719,7.70838941 120.752299,7.43562135 120.752299,7.18797667 C120.752299,6.49528937 120.280888,6 119.512595,6 C118.693923,6 118.323271,6.54374159 118.148741,7.38537461 L117.578369,10.0071781 L116.412435,10.0071781 C115.519992,10.0071781 115,10.5024675 115,11.3925527 C115,11.8878421 115.347261,12.2575146 116.090364,12.2575146 L117.106957,12.2575146 L116.189325,16.5105428 C116.090364,16.9807088 115.966214,17.7469717 115.966214,18.538358 C115.966214,20.5410498 117.007997,22 119.239105,22 C120.529189,22 121.668133,21.3575594 122.537185,20.589502 C123.381048,19.8483625 124,18.9331539 124,18.3391655 C124,17.7720951 123.553779,17.3019291 122.983407,17.3019291 Z" id="路径"></path>
                <path d="M63,5.20607287 C63,4.47732794 62.490775,4 61.7029521,4 C60.8634687,4 60.4833949,4.55202429 60.3044281,5.40647773 L57.1273063,19.9923077 C57.0516606,20.292915 57,20.544332 57,20.795749 C57,21.5244939 57.5092251,22 58.2712178,22 C59.1365314,22 59.5166052,21.4479757 59.695572,20.5935223 L62.8726938,6.00951417 C62.9243543,5.70708502 63,5.45748988 63,5.20607287 Z" id="路径"></path>
                <path d="M108.51126,9.57502783 C104.43311,9.57502783 101.655159,13.5655165 101.655159,17.3556612 C101.655159,17.4266923 101.657008,17.4977234 101.658858,17.5669331 C101.01893,18.5231205 100.201451,19.5139128 99.6410518,19.5139128 C99.2341614,19.5139128 99.0806528,19.1369018 99.0806528,18.5595467 C99.0806528,17.8565213 99.284098,16.6763129 99.5134361,15.6472731 L101.629266,6.00890418 C101.681052,5.70838814 101.730988,5.45704746 101.730988,5.20570677 C101.730988,4.47718304 101.246419,4 100.456682,4 C99.5892658,4 99.2341614,4.55185672 99.0547598,5.40605079 L97.9080689,10.6259233 C97.295884,9.9993929 96.4025748,9.57138521 95.0524388,9.57138521 C92.3447689,9.57138521 89.6204534,11.6240008 88.5588396,14.7730446 C87.3899547,17.749064 86.3449864,19.5102702 85.5201088,19.5102702 C85.2149411,19.5102702 85.0355395,19.2589295 85.0355395,18.8327431 C85.0355395,17.577861 85.749447,14.51624 86.0546147,13.0355155 C86.1563373,12.4836588 86.2081233,12.2578165 86.2081233,11.9318021 C86.2081233,10.8280886 84.347525,9.52220986 81.9265277,9.52220986 C79.1263826,9.52220986 76.5907163,11.2688455 75.3201088,13.86239 C73.431768,17.148032 71.6987852,19.5102702 70.8406165,19.5102702 C70.4577698,19.5102702 70.3301542,19.0330871 70.2284316,18.5814024 L69.5940526,15.122736 L73.4928015,11.9864414 C73.8497553,11.6859253 74.3084316,11.2579176 74.3084316,10.7060609 C74.3084316,10.0285338 73.8497553,9.57684913 73.1617408,9.57684913 C72.6512784,9.57684913 72.2184951,9.87736517 71.7857117,10.2288779 L65.9246419,14.9970657 L67.8869629,6.0125468 C67.9387489,5.71203076 68.0145785,5.46069007 68.0145785,5.20934939 C68.0145785,4.48082566 67.5041161,4.00364262 66.714379,4.00364262 C65.8728559,4.00364262 65.4918586,4.55549934 65.312457,5.40969341 L62.1276156,19.9910958 C62.0517861,20.2916119 62,20.5429525 62,20.7942932 C62,21.522817 62.5104624,21.9981787 63.2743065,21.9981787 C64.1417226,21.9981787 64.5227199,21.446322 64.7021215,20.5921279 L65.1108613,18.7107154 L67.5059656,16.8038045 L68.0922575,19.7142568 C68.3215957,20.8689669 68.9337806,21.9981787 70.5132548,21.9981787 C72.085331,21.9981787 73.3226474,20.5848427 74.5618133,18.6742892 C74.9372621,20.6759081 76.3835721,21.9981787 78.3902811,21.9981787 C80.4043881,21.9981787 81.7804171,20.8179703 82.6718767,19.2370738 L82.6718767,19.2880704 C82.6718767,20.9199636 83.5133999,21.9981787 84.9911514,21.9981787 C86.3283409,21.9981787 87.4380417,21.2040878 88.4293745,19.5175554 C88.9916229,20.987352 90.2492838,21.9981787 91.9989121,21.9981787 C94.0629556,21.9981787 95.5407072,20.7687949 96.4839529,19.0622281 L96.4839529,19.2133967 C96.4839529,21.0201356 97.4013056,22 98.9049502,22 C100.232892,22 101.361088,21.240514 102.324678,20.0056663 C103.057081,21.240514 104.370227,22 106.143899,22 C110.222049,22 113,18.0095113 113,14.1938683 C112.998151,11.507437 111.340998,9.57502783 108.51126,9.57502783 Z M83.1028106,14.6710513 C82.36301,17.8073459 80.7835359,19.5904078 78.998767,19.5904078 C77.8002902,19.5904078 77.1381687,18.6870383 77.1381687,17.3319842 C77.1381687,14.6710513 79.1004896,11.8097744 81.724932,11.8097744 C82.5146691,11.8097744 83.1268541,12.0356167 83.66136,12.3616311 L83.1028106,14.6710513 Z M97.2977335,13.3414955 C96.4821034,17.0314682 94.621505,19.5904078 92.5833545,19.5904078 C91.4625567,19.5904078 90.7985857,18.7362137 90.7985857,17.3319842 C90.7985857,14.6473743 92.6850771,11.860771 95.207797,11.860771 C96.1769357,11.860771 96.9148867,12.1867854 97.4512421,12.6129718 L97.2977335,13.3414955 Z M106.447217,19.5904078 C104.969465,19.5904078 104.35728,18.5358697 104.35728,17.2063139 C104.35728,14.7712233 106.06437,11.9864414 108.206093,11.9864414 C109.683844,11.9864414 110.296029,13.0409795 110.296029,14.3705353 C110.296029,16.8293028 108.58894,19.5904078 106.447217,19.5904078 Z" id="形状"></path>
                <path d="M51.6498696,10 C47.6943901,10 45,13.8545668 45,17.5156136 C45,20.1334115 46.607306,22 49.3501305,22 C53.30561,22 56,18.1454332 56,14.4597566 C56,11.8665885 54.3926941,10 51.6498696,10 Z M49.6479126,19.6742413 C48.2146119,19.6742413 47.6208415,18.6556223 47.6208415,17.3713532 C47.6208415,15.0192054 49.2765819,12.3292773 51.3538813,12.3292773 C52.787182,12.3292773 53.3809524,13.3478962 53.3809524,14.6321654 C53.3791586,17.0071837 51.7234182,19.6742413 49.6479126,19.6742413 Z" id="形状"></path>
                <ellipse id="椭圆形" cx="14.5" cy="2.5" rx="4.5" ry="2.5"></ellipse>
                <ellipse id="椭圆形" cx="14.5" cy="23.5" rx="4.5" ry="2.5"></ellipse>
                <ellipse id="椭圆形" transform="translate(4.707324, 7.863951) rotate(-59.999272) translate(-4.707324, -7.863951) " cx="4.70732379" cy="7.86395126" rx="4.68845167" ry="2.72863093"></ellipse>
                <ellipse id="椭圆形" transform="translate(22.500623, 18.136799) rotate(-59.999272) translate(-22.500623, -18.136799) " cx="22.5006234" cy="18.1367992" rx="4.68845167" ry="2.72678726"></ellipse>
                <ellipse id="椭圆形" transform="translate(4.707976, 18.136174) rotate(-30.000728) translate(-4.707976, -18.136174) " cx="4.70797643" cy="18.1361743" rx="2.72863093" ry="4.68845167"></ellipse>
                <ellipse id="椭圆形" transform="translate(22.501728, 7.864548) rotate(-30.000728) translate(-22.501728, -7.864548) " cx="22.5017278" cy="7.86454835" rx="2.72678726" ry="4.68845167"></ellipse>
            </g>
            <rect id="矩形" stroke="#A0A9BD" stroke-width="0.5" x="0" y="0" width="141" height="47" rx="3"></rect>
        </g>
    </g>
</svg>