<?xml version="1.0" encoding="UTF-8"?>
<svg width="141px" height="47px" viewBox="0 0 141 47" version="1.1" xmlns="http://www.w3.org/2000/svg" xmlns:xlink="http://www.w3.org/1999/xlink">
    <title>company-logo-lido</title>
    <g id="页面-1" stroke="none" stroke-width="1" fill="none" fill-rule="evenodd">
        <g id="Lido" fill="#A0A9BD" transform="translate(10.000000, 9.000000)">
            <polygon id="路径" fill-rule="nonzero" points="35 7 38.1807362 7 38.1807362 20.0792551 46 20.0792551 46 23 35 23"></polygon>
            <polygon id="路径" fill-rule="nonzero" points="59 7 62 7 62 23 59 23"></polygon>
            <path d="M78,7 L83.098074,7 C84.1517351,7 85.1543267,7.22009823 86.105849,7.66029469 C87.0577259,8.08356595 87.8989524,8.65923466 88.6295286,9.38726547 C89.3601048,10.1152963 89.938182,10.9618741 90.3630511,11.9269284 C90.7875655,12.8920179 91,13.916328 91,14.9999293 C91,16.0836366 90.7875655,17.1079821 90.3630511,18.0729656 C89.938182,19.0379492 89.3601048,19.8845624 88.6295286,20.6124519 C87.8989524,21.3406947 87.0577259,21.924773 86.105849,22.3650401 C85.1543267,22.7883467 84.1517351,23 83.098074,23 L78,23 L78,7 Z M83.098074,20.0792551 C83.726866,20.0792551 84.3301233,19.9439242 84.9078459,19.6729091 C85.5025917,19.4018939 86.021088,19.0379492 86.4629801,18.5807215 C86.9215408,18.1238472 87.278672,17.5902972 87.5333097,16.9807781 C87.8053252,16.3542984 87.9411556,15.6941097 87.9411556,14.9999293 C87.9411556,14.3057489 87.8053252,13.6538992 87.5333097,13.0443801 C87.278672,12.4179358 86.9215408,11.8761528 86.4629801,11.4189958 C86.021088,10.9618741 85.5025917,10.5978587 84.9078459,10.3269496 C84.3301233,10.0560404 83.726866,9.92060351 83.098074,9.92060351 L81.0588444,9.92060351 L81.0588444,20.0792551 L83.098074,20.0792551 Z" id="形状" fill-rule="nonzero"></path>
            <path d="M112,23 C110.915792,23 109.884135,22.7875 108.905027,22.3625 C107.943071,21.9197609 107.094973,21.3177391 106.360734,20.5564348 C105.643646,19.7770217 105.066691,18.8738043 104.629505,17.8467826 C104.209835,16.8197609 104,15.7040435 104,14.5 C104,13.3135478 104.209835,12.2067739 104.629505,11.1796783 C105.066691,10.1348804 105.643646,9.23177391 106.360734,8.47032174 C107.094973,7.69113043 107.943071,7.08907174 108.905027,6.66407174 C109.884135,6.22136957 110.915792,6 112,6 C113.084208,6 114.107107,6.22136957 115.068698,6.66407174 C116.048171,7.08907174 116.896269,7.69113043 117.612992,8.47032174 C118.347596,9.23177391 118.924551,10.1348804 119.34422,11.1796783 C119.781407,12.2067739 120,13.3135478 120,14.5 C120,15.7040435 119.781407,16.8197609 119.34422,17.8467826 C118.924551,18.8738043 118.347596,19.7770217 117.612992,20.5564348 C116.896269,21.3177391 116.048171,21.9197609 115.068698,22.3625 C114.107107,22.7875 113.084208,23 112,23 Z M112,19.9451739 C112.647021,19.9451739 113.267768,19.8125 113.862239,19.5467826 C114.45671,19.2814348 114.972721,18.9092826 115.409908,18.4310652 C115.847094,17.9354783 116.196697,17.3600652 116.459082,16.7048261 C116.721102,16.0318478 116.852477,15.2968935 116.852477,14.5 C116.852477,13.7031435 116.721102,12.9770957 116.459082,12.3218935 C116.196697,11.6489522 115.847094,11.0734283 115.409908,10.5953217 C114.972721,10.0994761 114.45671,9.71875 113.862239,9.45314348 C113.267768,9.1875 112.647021,9.05467826 112,9.05467826 C111.335462,9.05467826 110.705957,9.1875 110.111486,9.45314348 C109.534532,9.71875 109.027279,10.0994761 108.590092,10.5953217 C108.152906,11.0734283 107.803303,11.6489522 107.540918,12.3218935 C107.278533,12.9770957 107.147523,13.7031435 107.147523,14.5 C107.147523,15.2968935 107.278533,16.0318478 107.540918,16.7048261 C107.803303,17.3600652 108.152906,17.9354783 108.590092,18.4310652 C109.027279,18.9092826 109.534532,19.2814348 110.111486,19.5467826 C110.705957,19.8125 111.335462,19.9451739 112,19.9451739 Z" id="形状" fill-rule="nonzero"></path>
            <path d="M9.99989393,0 L17,10.9303777 L9.99954037,15 L3,10.9302367 L9.99989393,0 Z M5.14284488,10.4133601 L9.99989393,2.82911861 L14.8570137,10.4133954 L9.99957572,13.2372588 L5.14284488,10.4133601 Z" id="形状"></path>
            <path d="M9.99893029,17.8627643 L1.7965707,13 L1.57257063,13.3567228 C-0.953715836,17.3789 -0.389537096,22.6465556 2.92907104,26.0216186 C6.83425077,29.9927938 13.1657527,29.9927938 17.0710753,26.0216186 C20.3896477,22.6465556 20.9535764,17.3789 18.4275042,13.3567228 L18.2032185,13 L9.99928743,17.8631276 L9.99893029,17.8627643 Z" id="路径" fill-rule="nonzero"></path>
        </g>
    </g>
</svg>