<?xml version="1.0" encoding="UTF-8"?>
<svg width="141px" height="47px" viewBox="0 0 141 47" version="1.1" xmlns="http://www.w3.org/2000/svg" xmlns:xlink="http://www.w3.org/1999/xlink">
    <title>company-logo-clever</title>
    <g id="页面-1" stroke="none" stroke-width="1" fill="none" fill-rule="evenodd">
        <g id="logo-20230311" transform="translate(-432.000000, -102.000000)">
            <g id="company-logo-clever" transform="translate(432.000000, 102.000000)">
                <rect id="矩形" stroke="#A0A9BD" stroke-width="0.5" opacity="0" x="0" y="0" width="141" height="47" rx="3"></rect>
                <g id="logo-dark.51f3eb6e" transform="translate(14.000000, 10.000000)" fill="#A0A9BD" fill-rule="nonzero">
                    <path d="M7.90228079,15.3 C3.70228079,15.5 0.102280791,12.2 0.00228079142,7.9 C-0.0977192086,3.6 3.10228079,0.2 7.30228079,0 C7.50228079,0 7.70228079,0 7.90228079,0 L7.90228079,4.4 C6.10228079,4.4 4.60228079,5.9 4.60228079,7.7 C4.60228079,9.5 6.10228079,11 7.90228079,11 L7.90228079,15.3 Z" id="路径"></path>
                    <rect id="矩形" transform="translate(13.844926, 13.308915) rotate(-45.000000) translate(-13.844926, -13.308915) " x="-2.10492125" y="11.1089361" width="31.8996941" height="4.3999578"></rect>
                    <polygon id="路径" points="27.3022808 26 16.8022808 26 16.8022808 15.3 21.2022808 15.3 21.2022808 21.6 27.3022808 21.6"></polygon>
                    <g id="编组" transform="translate(34.802281, 5.100000)">
                        <path d="M16.1,3.5 L13.9,5.6 C12.4,4 10.7,3.2 8.8,3.2 C7.2,3.2 5.9,3.7 4.8,4.8 C3.7,5.9 3.2,7.2 3.2,8.8 C3.2,9.9 3.4,10.9 3.9,11.8 C4.4,12.7 5.1,13.3 6,13.8 C6.9,14.3 7.9,14.5 9,14.5 C9.9,14.5 10.8,14.3 11.5,14 C12.2,13.7 13.1,13 14,12.1 L16.2,14.4 C15,15.6 13.8,16.4 12.7,16.9 C11.6,17.4 10.3,17.6 8.9,17.6 C6.3,17.6 4.2,16.8 2.5,15.1 C0.8,13.4 0,11.3 0,8.8 C0,7.1 0.4,5.6 1.1,4.3 C1.8,3 2.9,2 4.3,1.2 C5.7,0.4 7.2,0 8.8,0 C10.2,0 11.5,0.3 12.8,0.9 C14.1,1.6 15.2,2.4 16.1,3.5 Z" id="路径"></path>
                        <polygon id="路径" points="18.9 0.5 22.1 0.5 22.1 14.2 26.7 14.2 26.7 17.2 18.9 17.2 18.9 0.5"></polygon>
                        <path d="M41.3,12 L31.3,12 C31.4,12.9 31.8,13.6 32.5,14.1 C33.1,14.6 33.9,14.9 34.9,14.9 C36.1,14.9 37.1,14.5 37.9,13.7 L40.4,14.9 C39.7,15.8 39,16.5 38.1,17 C37.2,17.4 36.1,17.7 34.9,17.7 C33,17.7 31.4,17.1 30.2,15.9 C29,14.7 28.4,13.1 28.4,11.3 C28.4,9.4 29,7.8 30.2,6.6 C31.4,5.4 32.9,4.7 34.8,4.7 C36.8,4.7 38.3,5.3 39.6,6.6 C40.8,7.8 41.4,9.5 41.4,11.5 L41.3,12 Z M38.2,9.5 C38,8.8 37.6,8.2 37,7.8 C36.4,7.4 35.7,7.2 34.9,7.2 C34,7.2 33.3,7.4 32.6,7.9 C32.2,8.2 31.8,8.7 31.5,9.5 L38.2,9.5 Z" id="形状"></path>
                        <polygon id="路径" points="42.5 4.9 45.7 4.9 48.8 12.2 51.9 4.9 55.1 4.9 49.8 17.3 47.8 17.3"></polygon>
                        <path d="M69.3,12 L59.3,12 C59.4,12.9 59.8,13.6 60.5,14.1 C61.1,14.6 61.9,14.9 62.9,14.9 C64.1,14.9 65.1,14.5 65.9,13.7 L68.4,14.9 C67.7,15.8 67,16.5 66.1,17 C65.2,17.4 64.1,17.7 62.9,17.7 C61,17.7 59.4,17.1 58.2,15.9 C57,14.7 56.4,13.1 56.4,11.3 C56.4,9.4 57,7.8 58.2,6.6 C59.4,5.4 60.9,4.7 62.8,4.7 C64.8,4.7 66.3,5.3 67.6,6.6 C68.8,7.8 69.4,9.5 69.4,11.5 L69.3,12 Z M66.1,9.5 C65.9,8.8 65.5,8.2 64.9,7.8 C64.3,7.4 63.6,7.2 62.8,7.2 C61.9,7.2 61.2,7.4 60.5,7.9 C60.1,8.2 59.7,8.7 59.4,9.5 L66.1,9.5 Z" id="形状"></path>
                        <path d="M71,4.9 L73.7,4.9 L73.7,6.5 C74,5.9 74.4,5.4 74.9,5.1 C75.4,4.8 75.9,4.6 76.5,4.6 C76.9,4.6 77.3,4.7 77.8,4.9 L76.8,7.6 C76.4,7.4 76.1,7.3 75.9,7.3 C75.4,7.3 75,7.6 74.7,8.2 C74.4,8.8 74.2,10 74.2,11.7 L74.2,12.3 L74.2,17.3 L71.1,17.3 L71.1,4.9 L71,4.9 Z" id="路径"></path>
                    </g>
                </g>
            </g>
        </g>
    </g>
</svg>