<?xml version="1.0" encoding="UTF-8"?>
<svg width="124px" height="26px" viewBox="0 0 124 26" version="1.1" xmlns="http://www.w3.org/2000/svg" xmlns:xlink="http://www.w3.org/1999/xlink">
    <title>0003</title>
    <g id="页面-1" stroke="none" stroke-width="1" fill="none" fill-rule="evenodd">
        <g id="0003" fill="#A0A9BD" fill-rule="nonzero">
            <path d="M39.3995976,3 C37.9557074,3 36.5641862,3.18296436 35.9974779,3.33763526 C35.172665,3.57152785 34.9669293,3.93557034 34.8116924,4.69006254 L31.5386251,19.921374 C31.486256,20.232602 31.4357572,20.4929018 31.4357572,20.7532016 C31.4357572,21.5076938 31.9257822,22 32.7244106,22 C33.6015927,22 33.9625652,21.4284722 34.1421163,20.54383 L35.0697971,16.2036136 C35.7131887,16.2809491 36.5641862,16.3601708 37.7761562,16.3601708 C43.1121912,16.3601708 46.4357572,13.4497171 46.4357572,9.05668619 C46.4357572,5.20877594 43.7798969,3 39.3995976,3 Z M37.6471039,13.8646878 C36.8222909,13.8646878 36.1770291,13.8382806 35.5860066,13.7609451 L37.3123158,5.6765611 C37.8528395,5.59922565 38.6533383,5.49359674 39.4781513,5.49359674 C42.3135627,5.49359674 43.757453,6.84602402 43.757453,9.08120719 C43.7555827,11.9407327 41.6926151,13.8646878 37.6471039,13.8646878 L37.6471039,13.8646878 Z" id="形状"></path>
            <path d="M122.419164,17.3019291 C121.998132,17.3019291 121.724642,17.5495738 121.20465,18.1184388 C120.287017,19.0587707 119.716645,19.577389 118.998732,19.577389 C118.35459,19.577389 118.007329,19.0587707 118.007329,18.2171377 C118.007329,17.7469717 118.106289,17.1781068 118.230439,16.5607896 L119.148072,12.2575146 L121.900971,12.2575146 C122.768224,12.2575146 123.290016,11.7622252 123.290016,10.87214 C123.290016,10.3768506 122.967944,10.0071781 122.224842,10.0071781 L119.642874,10.0071781 L120.089096,8.00448632 C120.139476,7.70838941 120.188056,7.43562135 120.188056,7.18797667 C120.188056,6.49528937 119.716645,6 118.948352,6 C118.12968,6 117.759028,6.54374159 117.584498,7.38537461 L117.014126,10.0071781 L115.848192,10.0071781 C114.955749,10.0071781 114.435757,10.5024675 114.435757,11.3925527 C114.435757,11.8878421 114.783018,12.2575146 115.526121,12.2575146 L116.542714,12.2575146 L115.625082,16.5105428 C115.526121,16.9807088 115.401971,17.7469717 115.401971,18.538358 C115.401971,20.5410498 116.443754,22 118.674862,22 C119.964946,22 121.10389,21.3575594 121.972942,20.589502 C122.816805,19.8483625 123.435757,18.9331539 123.435757,18.3391655 C123.435757,17.7720951 122.989536,17.3019291 122.419164,17.3019291 Z" id="路径"></path>
            <path d="M63.4357572,5.20607287 C63.4357572,4.47732794 62.9265322,4 62.1387093,4 C61.2992259,4 60.9191521,4.55202429 60.7401853,5.40647773 L57.5630635,19.9923077 C57.4874178,20.292915 57.4357572,20.544332 57.4357572,20.795749 C57.4357572,21.5244939 57.9449823,22 58.706975,22 C59.5722886,22 59.9523624,21.4479757 60.1313292,20.5935223 L63.308451,6.00951417 C63.3601115,5.70708502 63.4357572,5.45748988 63.4357572,5.20607287 Z" id="路径"></path>
            <path d="M108.947017,9.57502783 C104.868867,9.57502783 102.090916,13.5655165 102.090916,17.3556612 C102.090916,17.4266923 102.092765,17.4977234 102.094615,17.5669331 C101.454687,18.5231205 100.637208,19.5139128 100.076809,19.5139128 C99.6699186,19.5139128 99.51641,19.1369018 99.51641,18.5595467 C99.51641,17.8565213 99.7198552,16.6763129 99.9491933,15.6472731 L102.065023,6.00890418 C102.116809,5.70838814 102.166745,5.45704746 102.166745,5.20570677 C102.166745,4.47718304 101.682176,4 100.892439,4 C100.025023,4 99.6699186,4.55185672 99.490517,5.40605079 L98.3438261,10.6259233 C97.7316412,9.9993929 96.838332,9.57138521 95.488196,9.57138521 C92.7805261,9.57138521 90.0562106,11.6240008 88.9945968,14.7730446 C87.8257119,17.749064 86.7807436,19.5102702 85.955866,19.5102702 C85.6506983,19.5102702 85.4712967,19.2589295 85.4712967,18.8327431 C85.4712967,17.577861 86.1852042,14.51624 86.4903719,13.0355155 C86.5920945,12.4836588 86.6438805,12.2578165 86.6438805,11.9318021 C86.6438805,10.8280886 84.7832822,9.52220986 82.3622849,9.52220986 C79.5621398,9.52220986 77.0264735,11.2688455 75.755866,13.86239 C73.8675252,17.148032 72.1345424,19.5102702 71.2763737,19.5102702 C70.893527,19.5102702 70.7659114,19.0330871 70.6641888,18.5814024 L70.0298098,15.122736 L73.9285587,11.9864414 C74.2855125,11.6859253 74.7441888,11.2579176 74.7441888,10.7060609 C74.7441888,10.0285338 74.2855125,9.57684913 73.597498,9.57684913 C73.0870356,9.57684913 72.6542523,9.87736517 72.2214689,10.2288779 L66.3603991,14.9970657 L68.3227201,6.0125468 C68.3745061,5.71203076 68.4503357,5.46069007 68.4503357,5.20934939 C68.4503357,4.48082566 67.9398733,4.00364262 67.1501362,4.00364262 C66.3086131,4.00364262 65.9276158,4.55549934 65.7482142,5.40969341 L62.5633728,19.9910958 C62.4875433,20.2916119 62.4357572,20.5429525 62.4357572,20.7942932 C62.4357572,21.522817 62.9462196,21.9981787 63.7100637,21.9981787 C64.5774798,21.9981787 64.9584771,21.446322 65.1378787,20.5921279 L65.5466185,18.7107154 L67.9417228,16.8038045 L68.5280147,19.7142568 C68.7573529,20.8689669 69.3695378,21.9981787 70.949012,21.9981787 C72.5210882,21.9981787 73.7584046,20.5848427 74.9975705,18.6742892 C75.3730193,20.6759081 76.8193293,21.9981787 78.8260383,21.9981787 C80.8401453,21.9981787 82.2161743,20.8179703 83.1076339,19.2370738 L83.1076339,19.2880704 C83.1076339,20.9199636 83.9491571,21.9981787 85.4269086,21.9981787 C86.7640981,21.9981787 87.8737989,21.2040878 88.8651317,19.5175554 C89.4273801,20.987352 90.685041,21.9981787 92.4346693,21.9981787 C94.4987128,21.9981787 95.9764644,20.7687949 96.9197101,19.0622281 L96.9197101,19.2133967 C96.9197101,21.0201356 97.8370628,22 99.3407074,22 C100.668649,22 101.796845,21.240514 102.760435,20.0056663 C103.492838,21.240514 104.805984,22 106.579656,22 C110.657806,22 113.435757,18.0095113 113.435757,14.1938683 C113.433908,11.507437 111.776755,9.57502783 108.947017,9.57502783 Z M83.5385678,14.6710513 C82.7987672,17.8073459 81.2192931,19.5904078 79.4345242,19.5904078 C78.2360474,19.5904078 77.5739259,18.6870383 77.5739259,17.3319842 C77.5739259,14.6710513 79.5362468,11.8097744 82.1606892,11.8097744 C82.9504263,11.8097744 83.5626113,12.0356167 84.0971172,12.3616311 L83.5385678,14.6710513 Z M97.7334907,13.3414955 C96.9178606,17.0314682 95.0572622,19.5904078 93.0191117,19.5904078 C91.8983139,19.5904078 91.2343429,18.7362137 91.2343429,17.3319842 C91.2343429,14.6473743 93.1208343,11.860771 95.6435542,11.860771 C96.6126929,11.860771 97.3506439,12.1867854 97.8869993,12.6129718 L97.7334907,13.3414955 Z M106.882974,19.5904078 C105.405222,19.5904078 104.793037,18.5358697 104.793037,17.2063139 C104.793037,14.7712233 106.500127,11.9864414 108.64185,11.9864414 C110.119601,11.9864414 110.731786,13.0409795 110.731786,14.3705353 C110.731786,16.8293028 109.024697,19.5904078 106.882974,19.5904078 Z" id="形状"></path>
            <path d="M52.0856268,9 C48.1301473,9 45.4357572,13.1757807 45.4357572,17.1419147 C45.4357572,19.9778625 47.0430632,22 49.7858877,22 C53.7413672,22 56.4357572,17.8242193 56.4357572,13.831403 C56.4357572,11.0221375 54.8284513,9 52.0856268,9 Z M50.0836698,19.4804281 C48.6503691,19.4804281 48.0565987,18.3769242 48.0565987,16.9856326 C48.0565987,14.4374725 49.7123391,11.5233837 51.7896385,11.5233837 C53.2229392,11.5233837 53.8167096,12.6268876 53.8167096,14.0181792 C53.8149158,16.5911157 52.1591754,19.4804281 50.0836698,19.4804281 Z" id="形状"></path>
            <ellipse id="椭圆形" cx="13.9357572" cy="2.5" rx="4.5" ry="2.5"></ellipse>
            <ellipse id="椭圆形" cx="13.9357572" cy="23.5" rx="4.5" ry="2.5"></ellipse>
            <ellipse id="椭圆形" transform="translate(4.707324, 7.863951) rotate(-59.999272) translate(-4.707324, -7.863951) " cx="4.70732379" cy="7.86395116" rx="4.68845167" ry="2.72863093"></ellipse>
            <ellipse id="椭圆形" transform="translate(22.500624, 18.136799) rotate(-59.999272) translate(-22.500624, -18.136799) " cx="22.5006236" cy="18.1367988" rx="4.68845167" ry="2.72678726"></ellipse>
            <ellipse id="椭圆形" transform="translate(4.707977, 18.136174) rotate(-30.000728) translate(-4.707977, -18.136174) " cx="4.70797656" cy="18.1361741" rx="2.72863093" ry="4.68845167"></ellipse>
            <ellipse id="椭圆形" transform="translate(22.501728, 7.864548) rotate(-30.000728) translate(-22.501728, -7.864548) " cx="22.5017279" cy="7.86454835" rx="2.72678726" ry="4.68845167"></ellipse>
        </g>
    </g>
</svg>