<?xml version="1.0" encoding="UTF-8"?>
<svg width="143px" height="49px" viewBox="0 0 143 49" version="1.1" xmlns="http://www.w3.org/2000/svg" xmlns:xlink="http://www.w3.org/1999/xlink">
    <title>company-logo-frax-1</title>
    <g id="页面-1" stroke="none" stroke-width="1" fill="none" fill-rule="evenodd">
        <g id="company-logo-frax-1" transform="translate(1.000000, 1.000000)">
            <g id="编组" transform="translate(22.000000, 7.000000)">
                <path d="M72,10 C75.8659932,10 79,13.3578644 79,17.5 C79,21.6421356 75.8659932,25 72,25 C68.1340068,25 65,21.6421356 65,17.5 C65,13.3578644 68.1340068,10 72,10 Z M72.8979616,12.7835052 C70.5695793,12.7835052 68.6820525,14.8605347 68.6820525,17.4226804 C68.6820525,19.9848262 70.5695793,22.0618557 72.8979616,22.0618557 C75.2263439,22.0618557 77.1138707,19.9848262 77.1138707,17.4226804 C77.1138707,14.8605347 75.2263439,12.7835052 72.8979616,12.7835052 Z" id="形状结合" fill="#A0A9BD"></path>
                <polyline id="路径-2" fill="#A0A9BD" points="42 7 53 7 53 9.84332095 45.5626376 9.84332095 45.5626376 14.6861084 51.1534632 14.6861084 51.1534632 17.3298158 45.5626376 17.3298158 45.5626376 25 42 25"></polyline>
                <g id="FRAX_coin_blackwhite-ec359cae" fill-rule="nonzero">
                    <circle id="椭圆形" fill="#A0A9BD" cx="17" cy="17" r="17"></circle>
                    <path d="M25.841622,17.0742699 C25.841622,15.2912739 25.3059461,13.6322692 24.3883532,12.2460456 L27.1101322,9.52443482 L24.6623911,7.07684499 L21.9480521,9.79101629 C20.5543029,8.85488137 18.8778359,8.30807939 17.0761299,8.30807939 C15.2930237,8.30807939 13.6339165,8.84372215 12.2476072,9.76125835 L9.52458833,7.03964758 L7.07684729,9.48723741 L9.79118627,12.2014087 C8.85499352,13.5950718 8.30815775,15.2714353 8.30815775,17.07303 C8.30815775,18.856026 8.84383361,20.5150307 9.7614265,21.9012543 L7.03964758,24.624105 L9.48738862,27.0716948 L12.2017276,24.3575235 C13.5954768,25.2936585 15.2719438,25.8404604 17.0736499,25.8404604 C18.8567561,25.8404604 20.5158632,25.3048177 21.9021725,24.3872815 L24.6251914,27.1101322 L27.0729324,24.6625423 L24.3585935,21.948371 C25.2947862,20.5522281 25.841622,18.8758647 25.841622,17.0742699 Z M11.7714509,17.0742699 C11.7714509,14.1493133 14.1509925,11.7699187 17.0761299,11.7699187 C20.0012672,11.7699187 22.3808088,14.1493133 22.3808088,17.0742699 C22.3808088,19.9992266 20.0012672,22.3786211 17.0761299,22.3786211 C14.1509925,22.3786211 11.7714509,19.9992266 11.7714509,17.0742699 Z" id="形状" fill="#FFFFFF"></path>
                </g>
                <polyline id="路径-3" fill="#A0A9BD" points="57 10 57 25 60 25 60 10"></polyline>
                <path d="M60.0311225,17 C60.2201873,15.3361183 61.0114685,14.405379 62.4049662,14.2077823 C63.7984638,14.0101855 64.6634751,13.952577 65,14.0349568 L65,10.0688743 C64.5835096,9.97704189 64.2192128,9.97704189 63.9071097,10.0688743 C63.438955,10.206623 60.5188895,10.9874822 60.5188895,12.8202905 L60,12.876016 C60.0207483,15.6253387 60.0311225,17 60.0311225,17 Z" id="路径-4" fill="#A0A9BD"></path>
                <polyline id="路径-5" fill="#A0A9BD" points="81 10 81 25 78 25 78 10"></polyline>
                <polygon id="路径-6" fill="#A0A9BD" points="83 10 87.3891018 10 90.2498971 14.6292845 93.0348952 10 97 10 91.9737392 17.3426904 97 25 92.6850919 25 90 20.5108968 86.9162186 25 83 25 88.0715638 17.5"></polygon>
            </g>
            <rect id="矩形" stroke="#A0A9BD" stroke-width="0.5" x="0" y="0" width="141" height="47" rx="3"></rect>
        </g>
    </g>
</svg>