<?xml version="1.0" encoding="UTF-8"?>
<svg width="139px" height="40px" viewBox="0 0 139 40" version="1.1" xmlns="http://www.w3.org/2000/svg" xmlns:xlink="http://www.w3.org/1999/xlink">
    <title>company-logo-pendle</title>
    <defs>
        <polygon id="path-1" points="0 17.7777778 0 0 1.11111111 0 1.11111111 17.7777778"></polygon>
    </defs>
    <g id="页面-1" stroke="none" stroke-width="1" fill="none" fill-rule="evenodd">
        <g id="company-logo-pendle">
            <rect id="矩形" fill-opacity="0" fill="#FFFFFF" fill-rule="nonzero" x="0" y="0" width="139" height="40"></rect>
            <circle id="椭圆形" fill-opacity="0.5" fill="#A0A9BD" fill-rule="nonzero" cx="12.6666667" cy="20.6666667" r="11.6666667"></circle>
            <circle id="椭圆形" fill="#A0A9BD" fill-rule="nonzero" cx="7.66666667" cy="32.3333333" r="6.66666667"></circle>
            <g id="路径-Clipped" transform="translate(6.555556, 10.111111)">
                <mask id="mask-2" fill="white">
                    <use xlink:href="#path-1"></use>
                </mask>
                <g id="path-1"></g>
                <path d="M13.6841567,11.3740649 C13.6841567,18.0335045 9.62788692,23.4319566 4.624141,23.4319566 C-0.379551028,23.4319566 -4.43587463,18.0335045 -4.43587463,11.3740649 C-4.43587463,4.71469703 -0.379551028,-0.683826899 4.624141,-0.683826899 C9.62788692,-0.683826899 13.6841567,4.71469703 13.6841567,11.3740649 Z" id="路径" fill="#A0A9BD" fill-rule="nonzero" mask="url(#mask-2)"></path>
            </g>
            <path d="M40.5508746,23.0993388 L37.5898543,23.0993388 L37.5898543,27.8888889 L35.4444444,27.8888889 L35.4444444,15.6666667 L40.6217973,15.6666667 C42.0757115,15.6666667 44.1324681,16.8729237 44.1324681,19.2854378 C44.1324681,22.5139494 41.7920208,23.0993388 40.5508746,23.0993388 Z M37.5898543,21.2899532 L40.5686054,21.2899532 C41.0473332,21.2899532 42.0225195,20.8819545 42.0225195,19.2854378 C42.0225195,18.1678761 41.2246398,17.4937913 40.6217973,17.4937913 L37.5898543,17.4937913 L37.5898543,21.2899532 Z M56.106054,22.4962103 L56.106054,25.3167232 C56.106054,25.7247219 56.2478993,26.0795034 56.939395,26.0795034 L61.744404,26.0795034 L61.744404,27.8888889 L56.8330112,27.8888889 C54.8649078,27.8356717 53.9961054,27.2325432 53.9606441,25.4054185 L53.9606441,15.6666667 L61.744404,15.6666667 L61.744404,17.4760523 L56.106054,17.4760523 L56.106054,20.6868247 L61.3543295,20.6868247 L61.3543295,22.4962103 L56.106054,22.4962103 Z M74.1575685,19.0016126 L74.1575685,27.8888889 L72.0121586,27.8888889 L72.0121586,15.6666667 L74.1398378,15.6666667 C75.7710586,17.7243993 77.9519298,20.988389 79.3703827,24.0040317 L79.3703827,15.6666667 L81.5157926,15.6666667 L81.5157926,27.8888889 L79.3703827,27.8888889 C77.9519298,25.050637 76.3739011,22.176907 74.1575685,19.0016126 Z M96.5669957,27.8888889 L92.3470985,27.8888889 L92.3470985,15.6666667 L96.5669957,15.6666667 C99.528016,15.6666667 102.276268,17.7421384 102.276268,21.8043864 C102.276268,25.9198517 99.528016,27.8888889 96.5669957,27.8888889 Z M94.4925084,26.0795034 L95.8223079,26.0795034 C98.588291,26.0795034 100.042205,24.6248992 100.042205,21.8043864 C100.042205,19.0193517 98.7124056,17.4760523 95.8223079,17.4760523 L94.4925084,17.4760523 L94.4925084,26.0795034 Z M114.550141,15.6666667 L114.550141,25.1570715 C114.550141,25.6537655 114.727447,26.0795034 115.560788,26.0795034 L120.330336,26.0795034 L120.330336,27.8888889 L115.277098,27.8888889 C113.308995,27.8356717 112.440192,27.2325432 112.404731,25.4054185 L112.404731,15.6666667 L114.550141,15.6666667 Z M132.028317,22.4962103 L132.028317,25.3167232 C132.028317,25.7247219 132.170162,26.0795034 132.861658,26.0795034 L137.666667,26.0795034 L137.666667,27.8888889 L132.755274,27.8888889 C130.78717,27.8356717 129.918368,27.2325432 129.882907,25.4054185 L129.882907,15.6666667 L137.666667,15.6666667 L137.666667,17.4760523 L132.028317,17.4760523 L132.028317,20.6868247 L137.276592,20.6868247 L137.276592,22.4962103 L132.028317,22.4962103 Z" id="形状" fill="#A0A9BD" fill-rule="nonzero"></path>
        </g>
    </g>
</svg>