<?xml version="1.0" encoding="UTF-8"?>
<svg width="143px" height="49px" viewBox="0 0 143 49" version="1.1" xmlns="http://www.w3.org/2000/svg" xmlns:xlink="http://www.w3.org/1999/xlink">
    <title>company-logo-pendle-1</title>
    <defs>
        <polygon id="path-1" points="0 15 0 0 1 0 1 15"></polygon>
    </defs>
    <g id="页面-1" stroke="none" stroke-width="1" fill="none" fill-rule="evenodd">
        <g id="company-logo-pendle-1" transform="translate(1.000000, 1.000000)">
            <g id="no-glow-with-name" transform="translate(12.000000, 11.000000)">
                <circle id="椭圆形" fill-opacity="0.5" fill="#A0A9BD" fill-rule="nonzero" cx="10" cy="10" r="10"></circle>
                <circle id="椭圆形" fill="#A0A9BD" fill-rule="nonzero" cx="6" cy="20" r="6"></circle>
                <g id="Clipped" transform="translate(5.000000, 1.000000)">
                    <mask id="mask-2" fill="white">
                        <use xlink:href="#path-1"></use>
                    </mask>
                    <g id="路径"></g>
                    <path d="M12.315741,9.59686726 C12.315741,15.2157694 8.66509823,19.7707135 4.1617269,19.7707135 C-0.341595925,19.7707135 -3.99228717,15.2157694 -3.99228717,9.59686726 C-3.99228717,3.97802561 -0.341595925,-0.576978946 4.1617269,-0.576978946 C8.66509823,-0.576978946 12.315741,3.97802561 12.315741,9.59686726 Z" id="路径" fill="#A0A9BD" fill-rule="nonzero" mask="url(#mask-2)"></path>
                </g>
                <path d="M33.4459246,12.6894049 L30.8679058,12.6894049 L30.8679058,17 L29,17 L29,6 L33.5076735,6 C34.773527,6 36.5642467,7.08563135 36.5642467,9.25689405 C36.5642467,12.1625544 34.5265312,12.6894049 33.4459246,12.6894049 Z M30.8679058,11.0609579 L33.4613618,11.0609579 C33.8781672,11.0609579 34.7272153,10.6937591 34.7272153,9.25689405 C34.7272153,8.25108853 34.0325396,7.64441219 33.5076735,7.64441219 L30.8679058,7.64441219 L30.8679058,11.0609579 Z M46.9890753,12.1465893 L46.9890753,14.6850508 C46.9890753,15.0522496 47.1125732,15.371553 47.7146255,15.371553 L51.898117,15.371553 L51.898117,17 L47.6220021,17 C45.9084686,16.9521045 45.152044,16.4092888 45.1211695,14.7648766 L45.1211695,6 L51.898117,6 L51.898117,7.62844702 L46.9890753,7.62844702 L46.9890753,10.5181422 L51.5584978,10.5181422 L51.5584978,12.1465893 L46.9890753,12.1465893 Z M62.7056656,9.00145138 L62.7056656,17 L60.8377598,17 L60.8377598,6 L62.6902284,6 C64.1104543,7.85195936 66.0092346,10.7895501 67.2442136,13.5036284 L67.2442136,6 L69.1121194,6 L69.1121194,17 L67.2442136,17 C66.0092346,14.4455733 64.6353204,11.8592163 62.7056656,9.00145138 Z M82.2164821,17 L78.5424194,17 L78.5424194,6 L82.2164821,6 C84.7945009,6 87.1872728,7.86792453 87.1872728,11.5239478 C87.1872728,15.2278665 84.7945009,17 82.2164821,17 Z M80.4103253,15.371553 L81.5681181,15.371553 C83.9763273,15.371553 85.2421808,14.0624093 85.2421808,11.5239478 C85.2421808,9.01741655 84.0843879,7.62844702 81.5681181,7.62844702 L80.4103253,7.62844702 L80.4103253,15.371553 Z M97.8735465,6 L97.8735465,14.5413643 C97.8735465,14.988389 98.0279189,15.371553 98.753469,15.371553 L102.906086,15.371553 L102.906086,17 L98.5064732,17 C96.7929398,16.9521045 96.0365151,16.4092888 96.0056407,14.7648766 L96.0056407,6 L97.8735465,6 Z M113.090958,12.1465893 L113.090958,14.6850508 C113.090958,15.0522496 113.214456,15.371553 113.816508,15.371553 L118,15.371553 L118,17 L113.723885,17 C112.010352,16.9521045 111.253927,16.4092888 111.223052,14.7648766 L111.223052,6 L118,6 L118,7.62844702 L113.090958,7.62844702 L113.090958,10.5181422 L117.660381,10.5181422 L117.660381,12.1465893 L113.090958,12.1465893 Z" id="形状" fill="#A0A9BD" fill-rule="nonzero"></path>
            </g>
            <rect id="矩形" stroke="#A0A9BD" stroke-width="0.5" x="0" y="0" width="141" height="47" rx="3"></rect>
        </g>
    </g>
</svg>