<?xml version="1.0" encoding="UTF-8"?>
<svg width="141px" height="47px" viewBox="0 0 141 47" version="1.1" xmlns="http://www.w3.org/2000/svg" xmlns:xlink="http://www.w3.org/1999/xlink">
    <title>company-logo-convex</title>
    <g id="页面-1" stroke="none" stroke-width="1" fill="none" fill-rule="evenodd">
        <g id="logo-20230311" transform="translate(-94.000000, -174.000000)">
            <g id="company-logo-convex" transform="translate(94.000000, 174.000000)">
                <g id="convex_logo_finance_black" transform="translate(8.000000, 16.000000)" fill="#A0A9BD" fill-rule="nonzero">
                    <g id="Layer_1-2_2_" transform="translate(0.000000, 2.000000)">
                        <polygon id="路径" points="9.93596022 5.2 9.93596022 2.6 8.69238303 2.6 8.69238303 1.3 6.20839298 1.3 6.20839298 0 3.72598508 0 3.72598508 1.3 1.24199503 1.3 1.24199503 2.6 0 2.6 0 10.4 1.24199503 10.4 1.24199503 11.7 3.72440292 11.7 3.72440292 13 6.20839298 13 6.20839298 11.7 8.69238303 11.7 8.69238303 10.4 9.93596022 10.4 9.93596022 7.8 7.45038801 7.8 7.45038801 9.09669211 6.20839298 9.09669211 6.20839298 10.3966921 3.72598508 10.3966921 3.72598508 9.09669211 2.48399005 9.09669211 2.48399005 3.9 3.72598508 3.9 3.72598508 2.6 6.20839298 2.6 6.20839298 3.9 7.45038801 3.9 7.45038801 5.2"></polygon>
                        <path d="M16.6648836,1.29338422 C19.5270097,1.29338422 21.5917276,3.40712468 21.5917276,6.51157761 C21.5917276,9.61603053 19.5349205,11.7066158 16.6648836,11.7066158 C13.7948467,11.7066158 11.7601899,9.59287532 11.7601899,6.51157761 C11.7601899,3.4302799 13.8249077,1.29338422 16.6648836,1.29338422 Z M16.6648836,3.20534351 C15.0732314,3.20534351 13.9103443,4.48715013 13.9103443,6.51323155 C13.9103443,8.53931298 15.0732314,9.79631043 16.6648836,9.79631043 C18.3008363,9.79631043 19.439991,8.51450382 19.439991,6.51323155 C19.439991,4.51195929 18.3008363,3.20534351 16.6648836,3.20534351 Z" id="形状"></path>
                        <path d="M23.3336849,2.15012723 C24.7307316,1.60101781 26.2100505,1.31157761 27.7020267,1.29669211 C30.1338055,1.29669211 31.6827394,2.26259542 31.6827394,5.07430025 L31.6827394,11.4816794 L29.5737211,11.4816794 L29.5737211,5.27442748 C29.5737211,3.83384224 28.7130264,3.3178117 27.5295713,3.3178117 C26.8318391,3.31284987 26.135689,3.41043257 25.4632713,3.60890585 L25.4632713,11.4816794 L23.3336849,11.4816794 L23.3336849,2.15012723 Z" id="路径"></path>
                        <polygon id="路径" points="36.7171702 11.4816794 33.0386499 1.51832061 35.2979733 1.51832061 37.9876441 9.32328244 40.6614933 1.51832061 42.8559482 1.51832061 39.148949 11.4816794 36.7171702 11.4816794"></polygon>
                        <path d="M45.6690273,7.00610687 L45.6690273,7.05076336 C45.7971822,8.82875318 47.2606796,9.79465649 48.7463271,9.79465649 C50.0579372,9.79465649 51.0056506,9.48040712 51.9517818,8.82875318 L51.9517818,10.785369 C51.0910872,11.4155216 49.8221954,11.7066158 48.596022,11.7066158 C45.626309,11.7066158 43.6027273,9.72188295 43.6027273,6.57938931 C43.6027273,3.43689567 45.5835907,1.28676845 48.208393,1.28676845 C50.9835003,1.28676845 52.2966925,3.1524173 52.2966925,5.87480916 L52.2966925,6.99949109 L45.6690273,7.00610687 Z M45.7338959,5.56717557 L50.2952611,5.56717557 C50.2525428,4.01412214 49.520003,3.15903308 48.1435244,3.15903308 C46.917351,3.15903308 46.0139381,4.05877863 45.7338959,5.56717557 Z" id="形状"></path>
                        <polygon id="路径" points="59.4702027 6.35445293 63 11.4816794 60.5682212 11.4816794 58.2234612 7.99516539 55.877119 11.4816794 53.552927 11.4816794 57.0827243 6.3759542 53.7601899 1.51832061 56.2141189 1.51832061 58.321555 4.71208651 60.3957658 1.51832061 62.811723 1.51832061"></polygon>
                    </g>
                    <g id="编组" transform="translate(65.000000, 0.000000)">
                        <path d="M5.68773467,2.34831461 L5.68773467,0 L2.40170004,0 L2.40170004,0.975922953 L1.44102003,0.975922953 L1.44102003,3.88924559 L0,3.88924559 L0,5.74638844 L1.44102003,5.74638844 L1.44102003,13.9967897 L3.76796516,13.9967897 L3.76796516,5.74638844 L5.6893252,5.74638844 L5.6893252,3.89085072 L3.76796516,3.89085072 L3.76796516,2.34831461 L5.68773467,2.34831461 Z M3.56755841,4.29373997 L5.28851168,4.29373997 L5.28851168,5.34510433 L3.56755841,5.34510433 L3.36874218,5.34510433 L3.36874218,5.54574639 L3.36874218,13.5955056 L1.84024301,13.5955056 L1.84024301,5.3434992 L0.399222987,5.3434992 L0.399222987,4.29213483 L1.84024301,4.29213483 L1.84024301,1.3788122 L2.60051627,1.3788122 L2.7993325,1.3788122 L2.7993325,1.17817014 L2.7993325,0.402889246 L5.28692115,0.402889246 L5.28692115,1.94542536 L3.56596788,1.94542536 L3.36715165,1.94542536 L3.36715165,2.14606742 L3.36715165,4.09149278 L3.36715165,4.29213483 L3.56755841,4.29213483 L3.56755841,4.29373997 Z" id="形状"></path>
                        <path d="M6.74225594,0.49117175 L6.74225594,2.83146067 L9.06124844,2.83146067 L9.06124844,0.49117175 L6.74225594,0.49117175 Z M8.66361598,2.43017657 L7.14147893,2.43017657 L7.14147893,0.894060995 L8.66361598,0.894060995 L8.66361598,2.43017657 Z" id="形状"></path>
                        <path d="M6.74225594,3.89085072 L6.74225594,13.9983949 L9.06124844,13.9983949 L9.06124844,3.89085072 L6.74225594,3.89085072 Z M8.66361598,13.5955056 L7.14147893,13.5955056 L7.14147893,4.29373997 L8.66361598,4.29373997 L8.66361598,13.5955056 Z" id="形状"></path>
                        <path d="M18.1988423,5.8282504 L18.1988423,4.85874799 L17.2318002,4.85874799 L17.2318002,3.88924559 L13.4654255,3.88924559 L13.4654255,4.85874799 L12.9039685,4.85874799 L12.9039685,3.88924559 L10.584976,3.88924559 L10.584976,13.9967897 L12.9039685,13.9967897 L12.9039685,7.20064205 L13.8646485,7.20064205 L13.8646485,6.23113965 L15.8734877,6.23113965 L15.8734877,7.20064205 L16.8341677,7.20064205 L16.8341677,13.9983949 L19.1611128,13.9983949 L19.1611128,5.8282504 L18.1988423,5.8282504 Z M18.7602993,13.5955056 L17.2318002,13.5955056 L17.2318002,6.79775281 L16.2711202,6.79775281 L16.2711202,5.8282504 L13.4654255,5.8282504 L13.4654255,6.79775281 L12.5047455,6.79775281 L12.5047455,13.5955056 L10.9826085,13.5955056 L10.9826085,4.29373997 L12.5047455,4.29373997 L12.5047455,5.26324238 L13.8646485,5.26324238 L13.8646485,4.29373997 L16.8325772,4.29373997 L16.8325772,5.26324238 L17.7996193,5.26324238 L17.7996193,6.23274478 L18.7602993,6.23274478 L18.7602993,13.5955056 Z" id="形状"></path>
                        <g transform="translate(20.684840, 3.889246)" id="形状">
                            <path d="M8.09738736,1.93900482 L8.09738736,0.969502408 L7.13670734,0.969502408 L7.13670734,0 L1.92295056,0 L1.92295056,0.969502408 L0.962270547,0.969502408 L0.962270547,1.93900482 L0.00159052983,1.93900482 L0.00159052983,3.31139647 L3.28126304,3.31139647 L3.28126304,2.34189406 L5.76885169,2.34189406 L5.76885169,3.31139647 L6.73589383,3.31139647 L6.73589383,3.88443018 L2.88204005,3.88443018 L2.88204005,4.85393258 L0.960680017,4.85393258 L0.960680017,5.82343499 L0,5.82343499 L0,8.1717496 L0.960680017,8.1717496 L0.960680017,9.14125201 L1.92136003,9.14125201 L1.92136003,10.1107544 L6.16807468,10.1107544 L6.16807468,9.14125201 L6.73589383,9.14125201 L6.73589383,10.1107544 L9.05488632,10.1107544 L9.05488632,1.93900482 L8.09738736,1.93900482 Z M8.65725386,9.70626003 L7.13511681,9.70626003 L7.13511681,8.73675762 L5.76885169,8.73675762 L5.76885169,9.70626003 L2.32058302,9.70626003 L2.32058302,8.73675762 L1.359903,8.73675762 L1.359903,7.76725522 L0.400813517,7.76725522 L0.400813517,6.2247191 L1.36149353,6.2247191 L1.36149353,5.25521669 L3.28285357,5.25521669 L3.28285357,4.28571429 L7.13670734,4.28571429 L7.13670734,2.90690209 L6.16966521,2.90690209 L6.16966521,1.93739968 L2.88204005,1.93739968 L2.88204005,2.90690209 L0.400813517,2.90690209 L0.400813517,2.34028892 L1.36149353,2.34028892 L1.36149353,1.37078652 L2.32217355,1.37078652 L2.32217355,0.401284109 L6.73748436,0.401284109 L6.73748436,1.37078652 L7.69816437,1.37078652 L7.69816437,2.34028892 L8.65884439,2.34028892 L8.65884439,9.70626003 L8.65725386,9.70626003 Z"></path>
                            <path d="M5.77044222,4.85393258 L5.77044222,5.82343499 L2.40329057,5.82343499 L2.40329057,8.1717496 L6.16966521,8.1717496 L6.16966521,7.20064205 L7.13670734,7.20064205 L7.13670734,4.85393258 L5.77044222,4.85393258 Z M6.73748436,6.79775281 L5.77044222,6.79775281 L5.77044222,7.76725522 L2.80251356,7.76725522 L2.80251356,6.2247191 L6.16966521,6.2247191 L6.16966521,5.25521669 L6.73748436,5.25521669 L6.73748436,6.79775281 Z"></path>
                        </g>
                        <path d="M38.8773206,5.8282504 L38.8773206,4.85874799 L37.9102785,4.85874799 L37.9102785,3.88924559 L34.1439038,3.88924559 L34.1439038,4.85874799 L33.5824468,4.85874799 L33.5824468,3.88924559 L31.2634543,3.88924559 L31.2634543,13.9967897 L33.5824468,13.9967897 L33.5824468,7.20064205 L34.5431268,7.20064205 L34.5431268,6.23113965 L36.551966,6.23113965 L36.551966,7.20064205 L37.512646,7.20064205 L37.512646,13.9983949 L39.8395912,13.9983949 L39.8395912,5.8282504 L38.8773206,5.8282504 Z M39.4387776,13.5955056 L37.9102785,13.5955056 L37.9102785,6.79775281 L36.9495985,6.79775281 L36.9495985,5.8282504 L34.1439038,5.8282504 L34.1439038,6.79775281 L33.1832238,6.79775281 L33.1832238,13.5955056 L31.6610868,13.5955056 L31.6610868,4.29373997 L33.1832238,4.29373997 L33.1832238,5.26324238 L34.5431268,5.26324238 L34.5431268,4.29373997 L37.5110555,4.29373997 L37.5110555,5.26324238 L38.4780976,5.26324238 L38.4780976,6.23274478 L39.4387776,6.23274478 L39.4387776,13.5955056 Z" id="形状"></path>
                        <path d="M49.4607061,5.8282504 L49.4607061,4.85874799 L48.5000261,4.85874799 L48.5000261,3.88924559 L43.2862693,3.88924559 L43.2862693,4.85874799 L42.3255893,4.85874799 L42.3255893,5.8282504 L41.3649093,5.8282504 L41.3649093,12.05939 L42.3255893,12.05939 L42.3255893,13.0288925 L43.2862693,13.0288925 L43.2862693,13.9983949 L48.5000261,13.9983949 L48.5000261,13.0288925 L49.4607061,13.0288925 L49.4607061,12.05939 L50.4213861,12.05939 L50.4213861,9.71107544 L48.1023936,9.71107544 L48.1023936,10.6869984 L47.1353515,10.6869984 L47.1353515,11.6565008 L44.6477628,11.6565008 L44.6477628,10.6869984 L43.6870828,10.6869984 L43.6870828,7.20064205 L44.6477628,7.20064205 L44.6477628,6.23113965 L47.1353515,6.23113965 L47.1353515,7.20064205 L48.1023936,7.20064205 L48.1023936,8.17656501 L50.4213861,8.17656501 L50.4213861,5.8282504 L49.4607061,5.8282504 Z M50.0221631,7.77367576 L48.5000261,7.77367576 L48.5000261,6.79775281 L47.5329839,6.79775281 L47.5329839,5.8282504 L44.2469493,5.8282504 L44.2469493,6.79775281 L43.2862693,6.79775281 L43.2862693,11.0898876 L44.2469493,11.0898876 L44.2469493,12.05939 L47.5329839,12.05939 L47.5329839,11.0898876 L48.5000261,11.0898876 L48.5000261,10.1139647 L50.0221631,10.1139647 L50.0221631,11.6565008 L49.0614831,11.6565008 L49.0614831,12.6260032 L48.1008031,12.6260032 L48.1008031,13.5955056 L43.6854923,13.5955056 L43.6854923,12.6260032 L42.7248123,12.6260032 L42.7248123,11.6565008 L41.7641322,11.6565008 L41.7641322,6.23113965 L42.7248123,6.23113965 L42.7248123,5.26163724 L43.6854923,5.26163724 L43.6854923,4.29213483 L48.1008031,4.29213483 L48.1008031,5.26163724 L49.0614831,5.26163724 L49.0614831,6.23113965 L50.0221631,6.23113965 L50.0221631,7.77367576 Z" id="形状"></path>
                        <g transform="translate(51.941933, 3.889246)" id="形状">
                            <path d="M8.09579683,1.93900482 L8.09579683,0.969502408 L7.13511681,0.969502408 L7.13511681,0 L1.92136003,0 L1.92136003,0.969502408 L0.960680017,0.969502408 L0.960680017,1.93900482 L0,1.93900482 L0,8.17014446 L0.960680017,8.17014446 L0.960680017,9.13964687 L1.92136003,9.13964687 L1.92136003,10.1091493 L7.13511681,10.1091493 L7.13511681,9.13964687 L8.09579683,9.13964687 L8.09579683,8.17014446 L9.05647685,8.17014446 L9.05647685,6.79775281 L5.77044222,6.79775281 L5.77044222,7.76725522 L3.28285357,7.76725522 L3.28285357,6.79775281 L2.32217355,6.79775281 L2.32217355,5.7399679 L9.05806738,5.7399679 L9.05806738,1.93900482 L8.09579683,1.93900482 Z M8.65725386,5.33707865 L1.92136003,5.33707865 L1.92136003,7.20064205 L2.88204005,7.20064205 L2.88204005,8.17014446 L6.16807468,8.17014446 L6.16807468,7.20064205 L8.65566333,7.20064205 L8.65566333,7.76725522 L7.69498331,7.76725522 L7.69498331,8.73675762 L6.7343033,8.73675762 L6.7343033,9.70626003 L2.31899249,9.70626003 L2.31899249,8.73675762 L1.35831247,8.73675762 L1.35831247,7.76725522 L0.397632457,7.76725522 L0.397632457,2.34189406 L1.35831247,2.34189406 L1.35831247,1.37239165 L2.31899249,1.37239165 L2.31899249,0.402889246 L6.7343033,0.402889246 L6.7343033,1.37239165 L7.69498331,1.37239165 L7.69498331,2.34189406 L8.65566333,2.34189406 L8.65566333,5.33707865 L8.65725386,5.33707865 Z"></path>
                            <path d="M6.16807468,2.90850722 L6.16807468,1.93900482 L2.88204005,1.93900482 L2.88204005,2.90850722 L1.92136003,2.90850722 L1.92136003,4.28731942 L7.13511681,4.28731942 L7.13511681,2.90850722 L6.16807468,2.90850722 L6.16807468,2.90850722 Z M6.73589383,3.88443018 L2.32058302,3.88443018 L2.32058302,3.31139647 L3.28126304,3.31139647 L3.28126304,2.34189406 L5.76885169,2.34189406 L5.76885169,3.31139647 L6.73589383,3.31139647 L6.73589383,3.88443018 Z"></path>
                        </g>
                    </g>
                </g>
                <rect id="矩形" stroke="#A0A9BD" stroke-width="0.5" opacity="0" x="0" y="0" width="141" height="47" rx="3"></rect>
            </g>
        </g>
    </g>
</svg>