<?xml version="1.0" encoding="UTF-8"?>
<svg width="141px" height="47px" viewBox="0 0 141 47" version="1.1" xmlns="http://www.w3.org/2000/svg" xmlns:xlink="http://www.w3.org/1999/xlink">
    <title>company-logo-concentrator</title>
    <g id="页面-1" stroke="none" stroke-width="1" fill="none" fill-rule="evenodd">
        <g id="logo-20230311" transform="translate(-248.000000, -102.000000)">
            <g id="company-logo-concentrator" transform="translate(248.000000, 102.000000)">
                <g id="logo.7665a7318cab3a808f37b685c83dbdc7" transform="translate(13.976872, 4.988869)" fill="#A0A9BD" fill-rule="nonzero">
                    <polygon id="矩形" opacity="0.8" transform="translate(5.947774, 12.815004) rotate(-67.400000) translate(-5.947774, -12.815004) " points="5.8978886 6.58064238 5.98383918 6.58073786 5.99765955 19.0493658 5.91170896 19.0492703"></polygon>
                    <polygon id="矩形" opacity="0.8" transform="translate(5.947774, 12.815004) rotate(-67.400000) translate(-5.947774, -12.815004) " points="5.8978886 6.58064238 5.98383918 6.58073786 5.99765955 19.0493658 5.91170896 19.0492703"></polygon>
                    <polygon id="矩形" opacity="0.8" transform="translate(17.859932, 30.900234) rotate(-88.950000) translate(-17.859932, -30.900234) " points="11.7558713 30.8555435 23.9639875 30.8562442 23.9639926 30.9449246 11.7558764 30.9442239"></polygon>
                    <polygon id="矩形" opacity="0.8" transform="translate(9.504921, 8.345103) rotate(-42.040000) translate(-9.504921, -8.345103) " points="9.436633 2.39890124 9.554708 2.39908487 9.57320895 14.2913043 9.45513395 14.2911207"></polygon>
                    <polygon id="矩形" opacity="0.8" transform="translate(12.417193, 29.298878) rotate(-63.600000) translate(-12.417193, -29.298878) " points="6.54516839 29.2261431 18.2890548 29.2407854 18.2892176 29.3716138 6.5453312 29.3569715"></polygon>
                    <polygon id="路径" opacity="0.8" points="12.7670018 0.312862003 12.9105796 0.270765095 16.21287 11.2833162 16.0692921 11.3254131"></polygon>
                    <polygon id="路径" opacity="0.8" points="3.780718 29.2208087 3.68359181 29.094518 12.657207 22.0601247 12.7543331 22.1822057"></polygon>
                    <polygon id="矩形" opacity="0.8" transform="translate(20.001163, 5.598290) rotate(-81.340000) translate(-20.001163, -5.598290) " points="14.414465 5.50701146 25.5877779 5.51222106 25.5878603 5.68956937 14.4145475 5.68435977"></polygon>
                    <polygon id="路径" opacity="0.8" points="0.613559714 21.9506727 0.571330936 21.769656 11.4072351 19.3111966 11.445241 19.4880036"></polygon>
                    <polygon id="路径" opacity="0.8" points="28.2818545 32.525416 28.1213851 32.6348679 21.9010863 23.5714037 22.0615556 23.4619517"></polygon>
                    <polygon id="路径" opacity="0.8" points="27.9820302 3.1501936 28.1509453 3.26385525 22.0277726 12.2852226 21.8630804 12.171561"></polygon>
                    <polygon id="路径" opacity="0.8" points="0.833149355 14.1627447 0.87960101 13.9606796 11.4579097 16.3012676 11.4156809 16.5033328"></polygon>
                    <polygon id="矩形" opacity="0.8" transform="translate(20.027167, 29.898808) rotate(-9.090000) translate(-20.027167, -29.898808) " points="19.9168736 24.5393999 20.1322236 24.5395048 20.1374612 35.2582155 19.9221112 35.2581106"></polygon>
                    <polygon id="路径" opacity="0.8" points="4.30013196 7.31778749 4.4437098 7.13677079 12.8007848 13.6154849 12.657207 13.7965016"></polygon>
                    <polygon id="路径" opacity="0.8" points="13.3582047 34.4871319 13.1301693 34.4197768 16.0861837 24.3670352 16.3099962 24.4343903"></polygon>
                    <polygon id="路径" opacity="0.8" points="10.2755039 2.66607916 10.4950936 2.5566272 15.1571506 11.7716404 14.9375609 11.8810923"></polygon>
                    <polygon id="路径" opacity="0.8" points="6.8507501 30.6773617 6.6607206 30.5089741 13.4975596 22.8599659 13.6875891 23.0283535"></polygon>
                    <polygon id="路径" opacity="0.8" points="17.559968 1.02429975 17.8260093 1.01588037 18.0793819 11.1149286 17.8091178 11.1191383"></polygon>
                    <polygon id="路径" opacity="0.8" points="2.65743253 24.5564713 2.55186058 24.3080995 11.8126314 20.3930871 11.9224262 20.6456686"></polygon>
                    <polygon id="路径" opacity="0.8" points="24.7557516 2.61556287 25.01757 2.72922452 20.9889447 11.7674307 20.7313491 11.653769"></polygon>
                    <polygon id="路径" opacity="0.8" points="1.50036403 17.3368516 1.51303267 17.0463829 11.3565606 17.4547229 11.343892 17.7451916"></polygon>
                    <polygon id="路径" opacity="0.8" points="23.6831407 33.4136607 23.4044307 33.5146933 20.1908208 24.2996802 20.4737536 24.2028573"></polygon>
                    <polygon id="路径" opacity="0.8" points="3.51889958 10.4034908 3.66247742 10.1340706 12.205359 14.6131816 12.0617812 14.8826019"></polygon>
                    <polygon id="路径" opacity="0.8" points="16.5042485 34.091421 16.1959785 34.0577434 17.2305835 24.5522616 17.5388536 24.5859391"></polygon>
                    <polygon id="路径" opacity="0.8" points="8.2527455 5.06139322 8.51456392 4.86774745 14.1943344 12.4115134 13.9367389 12.6051591"></polygon>
                    <polygon id="路径" opacity="0.8" points="9.81098737 31.6750584 9.53227744 31.5024611 14.4477071 23.5166777 14.7306399 23.689275"></polygon>
                    <polygon id="路径" opacity="0.8" points="14.7433085 2.28720699 15.072693 2.21985193 16.9307592 11.2748968 16.6013747 11.3464616"></polygon>
                    <polygon id="路径" opacity="0.8" points="4.85755182 26.6992039 4.66752232 26.4129449 12.3869428 21.3992032 12.5769723 21.6854622"></polygon>
                    <polygon id="路径" opacity="0.8" points="21.7110568 2.53557874 22.0573327 2.61977256 19.8867736 11.422236 19.5447205 11.3380422"></polygon>
                    <polygon id="路径" opacity="0.8" points="2.53496907 20.1741832 2.48429454 19.8205692 11.4410182 18.6039685 11.4874698 18.9617922"></polygon>
                    <polygon id="路径" opacity="0.8" points="25.9466031 31.4266867 25.6256644 31.6034937 21.2338716 23.798727 21.5505874 23.6219199"></polygon>
                    <polygon id="路径" opacity="0.8" points="27.8342295 5.68863715 28.1213851 5.92437984 22.4880663 12.8156437 22.2009106 12.5841107"></polygon>
                    <polygon id="路径" opacity="0.8" points="3.22752102 13.3671132 3.33731584 13.0134991 11.7830713 15.6824431 11.6732764 16.0402668"></polygon>
                    <polygon id="路径" opacity="0.8" points="19.3673596 33.2831603 18.9873006 33.3084185 18.3834291 24.5522616 18.7592652 24.5270035"></polygon>
                    <polygon id="路径" opacity="0.8" points="6.72828664 7.57457863 6.99010506 7.29252934 13.3497589 13.1987255 13.0879405 13.4807748"></polygon>
                    <polygon id="路径" opacity="0.8" points="12.7036586 32.1675923 12.3362682 32.0244628 15.4907579 24.0134212 15.8539254 24.152341"></polygon>
                    <polygon id="路径" opacity="0.8" points="12.310931 3.87426042 12.6825442 3.72692124 15.832811 11.6243012 15.4611978 11.7716404"></polygon>
                    <polygon id="路径" opacity="0.8" points="7.21814046 28.3662415 6.93943053 28.0715631 13.1132777 22.287448 13.3919877 22.5821263"></polygon>
                    <polygon id="路径" opacity="0.8" points="18.8690601 2.91866061 19.2829021 2.94391875 18.7465966 11.2664775 18.3327546 11.2412193"></polygon>
                    <polygon id="路径" opacity="0.8" points="3.9327416 22.6621104 3.80183239 22.2621898 11.7112823 19.7195366 11.8421916 20.1194572"></polygon>
                    <polygon id="路径" opacity="0.8" points="27.745549 29.2292281 27.4203874 29.4986483 22.1755733 23.1420152 22.5007349 22.872595"></polygon>
                    <polygon id="路径" opacity="0.8" points="25.1315877 4.82986023 25.5074238 5.03613508 21.529473 12.1883997 21.1536369 11.9821249"></polygon>
                    <polygon id="路径" opacity="0.8" points="3.40910476 16.1749769 3.46822505 15.7497982 11.550813 16.8064305 11.4959156 17.2316093"></polygon>
                    <polygon id="路径" opacity="0.8" points="21.909532 32.0833984 21.4872443 32.1928504 19.5151604 24.3586158 19.941671 24.2533736"></polygon>
                    <polygon id="路径" opacity="0.8" points="5.6936816 10.1593288 5.93860851 9.7846663 12.657207 14.1080187 12.4165029 14.4826812"></polygon>
                    <polygon id="路径" opacity="0.8" points="15.4823121 32.1760116 15.03891 32.0918178 16.592929 24.3207286 17.0363311 24.4091321"></polygon>
                    <polygon id="路径" opacity="0.8" points="10.2881726 5.74336313 10.6809002 5.50341076 14.8150975 12.1463028 14.4265927 12.3904649"></polygon>
                    <polygon id="路径" opacity="0.8" points="9.69696967 29.5533743 9.32535644 29.2755347 13.9747448 23.0409826 14.346358 23.3146125"></polygon>
                    <polygon id="路径" opacity="0.8" points="16.2677674 3.73113093 16.7365068 3.68061464 17.6021968 11.300155 17.1334573 11.354881"></polygon>
                    <polygon id="路径" opacity="0.8" points="5.63878419 24.7669558 5.41497167 24.3459868 12.1631303 20.7677496 12.3869428 21.184509"></polygon>
                    <polygon id="路径" opacity="0.8" points="22.4669519 4.45519775 22.9230227 4.61095631 20.4779765 11.7295434 20.0219057 11.5737849"></polygon>
                    <polygon id="路径" opacity="0.8" points="4.03831354 18.7765658 4.01719915 18.2882417 11.5085842 17.9430471 11.5296986 18.4271615"></polygon>
                    <polygon id="路径" opacity="0.8" points="24.0969827 30.5552807 23.6493576 30.7573458 20.5919942 23.9797437 21.0396192 23.7776785"></polygon>
                    <polygon id="路径" opacity="0.8" points="5.14893038 12.7482886 5.34318275 12.2852226 12.1293472 15.1141348 11.9350949 15.5772008"></polygon>
                    <polygon id="路径" opacity="0.8" points="18.0878277 31.7339941 17.5810824 31.7255747 17.7288831 24.4428097 18.2314055 24.451229"></polygon>
                    <polygon id="路径" opacity="0.8" points="8.70037053 7.82716008 9.08465241 7.48617512 13.9029559 12.8324824 13.5228969 13.1734674"></polygon>
                    <polygon id="路径" opacity="0.8" points="12.2095819 30.2563926 11.7492882 30.0290693 14.9460067 23.634549 15.4105232 23.8618723"></polygon>
                    <polygon id="路径" opacity="0.8" points="13.966299 4.92247343 14.4688215 4.77092456 16.487357 11.5274783 15.9848346 11.6790272"></polygon>
                    <polygon id="路径" opacity="0.8" points="7.58553082 26.4592515 7.26036923 26.0424922 12.7838933 21.7191397 13.1090549 22.1316894"></polygon>
                    <polygon id="路径" opacity="0.8" points="19.9036651 4.54360125 20.4315248 4.62779507 19.3758054 11.4559135 18.8479457 11.3759294"></polygon>
                    <polygon id="路径" opacity="0.8" points="5.06024995 21.1087345 4.94200937 20.5867329 11.6563849 19.0670345 11.7788484 19.5890362"></polygon>
                    <polygon id="路径" opacity="0.8" points="25.8917057 28.7577427 25.4440807 29.0608405 21.5843704 23.4282742 22.0319955 23.1251764"></polygon>
                    <polygon id="路径" opacity="0.8" points="25.3722917 6.71159201 25.8241397 7.01468975 22.015104 12.6262076 21.5590332 12.3231098"></polygon>
                    <polygon id="路径" opacity="0.8" points="5.07291858 15.2656837 5.19115915 14.7268433 11.7830713 16.1918157 11.6606078 16.7306561"></polygon>
                    <polygon id="路径" opacity="0.8" points="20.4568621 30.8878463 19.907888 30.9720401 18.8606143 24.3670352 19.4095884 24.2828414"></polygon>
                    <polygon id="路径" opacity="0.8" points="7.56019355 10.0414574 7.90646952 9.5994399 13.1259464 13.6533721 12.7838933 14.0953897"></polygon>
                    <polygon id="路径" opacity="0.8" points="14.6884111 30.5005547 14.1478828 30.3405865 15.9975032 24.0513084 16.5422544 24.2112767"></polygon>
                    <polygon id="路径" opacity="0.8" points="12.0026609 6.42112335 12.5136291 6.16433221 15.4316376 11.940028 14.9206694 12.1968191"></polygon>
                    <polygon id="路径" opacity="0.8" points="9.69696967 27.7221588 9.26623615 27.3390769 13.552457 22.5442391 13.9831906 22.927321"></polygon>
                    <polygon id="路径" opacity="0.8" points="17.5135163 5.05718353 18.0962734 5.04455446 18.248297 11.3759294 17.6655399 11.3927682"></polygon>
                    <polygon id="路径" opacity="0.8" points="6.41157081 23.1293861 6.18353542 22.5905457 11.9942152 20.1405057 12.2264734 20.6793461"></polygon>
                    <polygon id="路径" opacity="0.8" points="23.015926 6.16012252 23.5606772 6.4000749 21.0311735 12.0705284 20.4864222 11.830576"></polygon>
                    <polygon id="路径" opacity="0.8" points="5.42341743 17.644159 5.44453182 17.0463829 11.6226019 17.3073838 11.5972646 17.9051598"></polygon>
                    <polygon id="路径" opacity="0.8" points="22.5387408 29.6922941 21.9686523 29.8901495 19.9585625 24.1060344 20.528651 23.9081789"></polygon>
                    <polygon id="路径" opacity="0.8" points="6.86764161 12.3146905 7.15057441 11.7800597 12.5051834 14.5921332 12.2222505 15.1309736"></polygon>
                    <polygon id="路径" opacity="0.8" points="17.0574455 30.3069089 16.4493511 30.2437636 17.1038972 24.2870511 17.7119916 24.3501965"></polygon>
                    <polygon id="路径" opacity="0.8" points="10.4148589 8.16393534 10.9131585 7.78927286 14.4688215 12.5209653 13.9705219 12.8914181"></polygon>
                    <polygon id="路径" opacity="0.8" points="11.897089 28.5514679 11.3650064 28.2273217 14.4477071 23.226209 14.9797897 23.5503552"></polygon>
                    <polygon id="路径" opacity="0.8" points="15.3514029 5.94542829 15.972166 5.81913757 17.1292345 11.4853814 16.5126943 11.6158818"></polygon>
                    <polygon id="路径" opacity="0.8" points="8.02893298 24.8006334 7.68265701 24.2702123 12.5094062 21.1382024 12.8556822 21.6686234"></polygon>
                    <polygon id="路径" opacity="0.8" points="20.7102348 6.04225118 21.3309978 6.19380005 19.9712312 11.6916562 19.3504681 11.5401074"></polygon>
                    <polygon id="路径" opacity="0.8" points="6.15819815 19.8163595 6.06951772 19.1806962 11.6563849 18.4271615 11.7450654 19.0628248"></polygon>
                    <polygon id="路径" opacity="0.8" points="24.2912351 28.2189023 23.7253694 28.5346291 20.9889447 23.6640169 21.5548103 23.34829"></polygon>
                    <polygon id="路径" opacity="0.8" points="25.4567493 8.39125864 25.9634946 8.79959865 22.4500604 13.0934833 21.943315 12.6851433"></polygon>
                    <polygon id="路径" opacity="0.8" points="6.60160031 14.5710847 6.79585269 13.9480505 12.0533354 15.6150881 11.8590831 16.2381223"></polygon>
                    <polygon id="路径" opacity="0.8" points="19.2533419 29.7301813 18.594573 29.7722782 18.2229598 24.3249383 18.8775058 24.2786317"></polygon>
                    <polygon id="路径" opacity="0.8" points="9.21978449 10.0667156 9.67585529 9.58260114 13.6200231 13.2534515 13.1681752 13.737566"></polygon>
                    <polygon id="路径" opacity="0.8" points="14.105654 28.9555982 13.4806681 28.7114361 15.4443062 23.744001 16.0650693 23.9839534"></polygon>
                    <polygon id="路径" opacity="0.8" points="13.4764452 7.14519017 14.1014311 6.89681841 16.0481778 11.7884791 15.4231919 12.0368509"></polygon>
                    <polygon id="路径" opacity="0.8" points="9.82787888 26.0930084 9.36336234 25.6046843 13.1850667 22.0306568 13.6495832 22.518981"></polygon>
                    <polygon id="路径" opacity="0.8" points="18.5227841 6.32430046 19.2068903 6.36639737 18.8690601 11.5022201 18.1891768 11.4601232"></polygon>
                    <polygon id="路径" opacity="0.8" points="7.22236333 21.7359785 7.00699657 21.0834764 11.8844203 19.5174714 12.0955642 20.1699735"></polygon>
                    <polygon id="路径" opacity="0.8" points="25.6805618 26.5308163 25.1484792 26.9686241 21.9264235 23.0536117 22.4585061 22.6158038"></polygon>
                    <polygon id="路径" opacity="0.8" points="23.3833163 7.72191781 23.9871879 8.05448338 21.5379188 12.4494006 20.9298244 12.1126253"></polygon>
                    <polygon id="路径" opacity="0.8" points="6.7367324 16.7348658 6.82963571 16.0444765 11.7872941 16.6969786 11.6986137 17.3873679"></polygon>
                    <polygon id="路径" opacity="0.8" points="21.2127572 28.808259 20.5328739 28.9808563 19.3293537 24.1775991 20.0092371 24.0050018"></polygon>
                    <polygon id="路径" opacity="0.8" points="8.42588348 12.062109 8.81016536 11.4685426 12.9148025 14.1122284 12.5347435 14.7057948"></polygon>
                    <polygon id="路径" opacity="0.8" points="16.2508759 28.9598079 15.5498782 28.8208881 16.5042485 24.0807762 17.2010234 24.219696"></polygon>
                    <polygon id="路径" opacity="0.8" points="11.9182034 8.5933238 12.5305206 8.21445163 15.0431329 12.2641742 14.4350385 12.6388367"></polygon>
                    <polygon id="路径" opacity="0.8" points="11.7450654 27.0023017 11.1665311 26.5771229 13.9958592 22.7884012 14.5743934 23.2135799"></polygon>
                    <polygon id="路径" opacity="0.8" points="16.5169172 6.96417346 17.2348064 6.88418934 17.7584432 11.5022201 17.0363311 11.5822043"></polygon>
                    <polygon id="路径" opacity="0.8" points="8.54834694 23.3524997 8.20629384 22.7126267 12.2898166 20.5488457 12.6360926 21.1929284"></polygon>
                    <polygon id="路径" opacity="0.8" points="21.3141063 7.4482879 22.0108811 7.68403059 20.5328739 11.9737055 19.8403219 11.7379628"></polygon>
                    <polygon id="路径" opacity="0.8" points="7.23925485 18.7428883 7.20547182 18.0104021 11.7112823 17.8041273 11.7492882 18.5408232"></polygon>
                    <polygon id="路径" opacity="0.8" points="22.8976854 27.6084971 22.222025 27.9115949 20.389296 23.8408239 21.0649565 23.5377261"></polygon>
                    <polygon id="路径" opacity="0.8" points="8.0247101 14.0701315 8.31186578 13.3797422 12.3700513 15.0762476 12.0828956 15.7666369"></polygon>
                    <polygon id="路径" opacity="0.8" points="18.2651886 28.5977745 17.5135163 28.5809357 17.6021968 24.2323251 18.353869 24.2449542"></polygon>
                    <polygon id="路径" opacity="0.8" points="10.7062374 10.2182644 11.2721031 9.71310155 14.139437 12.8998375 13.5735714 13.4050004"></polygon>
                    <polygon id="路径" opacity="0.8" points="13.7044806 27.528513 13.0203744 27.1917377 14.9248923 23.3945966 15.6047756 23.7313719"></polygon>
                    <polygon id="路径" opacity="0.8" points="14.7390857 7.9071442 15.4738664 7.68824028 16.6647179 11.6874465 15.9341601 11.9063505"></polygon>
                    <polygon id="路径" opacity="0.8" points="10.0770287 24.6490845 9.60406637 24.0470987 12.8683508 21.4918164 13.345536 22.0938022"></polygon>
                    <polygon id="路径" opacity="0.8" points="19.3251309 7.5409011 20.0936946 7.65877244 19.4687087 11.6748175 18.7043678 11.5611558"></polygon>
                    <polygon id="路径" opacity="0.8" points="8.05849312 20.544636 7.88535514 19.7911013 11.8295229 18.9028566 12.0026609 19.6563912"></polygon>
                    <polygon id="路径" opacity="0.8" points="24.2701207 26.194041 23.6282433 26.6318489 21.3690037 23.3314513 22.015104 22.8936434"></polygon>
                    <polygon id="路径" opacity="0.8" points="23.5817916 9.14900299 24.2321148 9.58681083 22.0024353 12.8619503 21.3521122 12.4241424"></polygon>
                    <polygon id="路径" opacity="0.8" points="7.99092708 16.0276377 8.15984219 15.261474 12.0026609 16.1160413 11.8337458 16.882205"></polygon>
                    <polygon id="路径" opacity="0.8" points="20.0936946 27.9115949 19.3166851 28.0336759 18.7085907 24.1902282 19.4898231 24.0681472"></polygon>
                    <polygon id="路径" opacity="0.8" points="9.84899327 11.9568667 10.3388471 11.3296228 13.3582047 13.6786303 12.8683508 14.3058742"></polygon>
                    <polygon id="路径" opacity="0.8" points="15.6301129 27.6842716 14.865772 27.461158 15.9383829 23.8281948 16.7069467 24.0513084"></polygon>
                    <polygon id="路径" opacity="0.8" points="13.2357412 9.10269639 13.9536304 8.74066298 15.62589 12.0578993 14.9122237 12.4199327"></polygon>
                    <polygon id="路径" opacity="0.8" points="11.7366196 25.6004746 11.1327481 25.0658439 13.5946858 22.3211255 14.1985573 22.8557562"></polygon>
                    <polygon id="路径" opacity="0.8" points="17.4755104 7.97449925 18.2905258 7.9534508 18.3707605 11.5653655 17.559968 11.586414"></polygon>
                    <polygon id="路径" opacity="0.8" points="9.13532694 22.0980119 8.81861111 21.3486869 12.1293472 19.959489 12.4460631 20.7046042"></polygon>
                    <polygon id="路径" opacity="0.8" points="21.7448398 8.75329205 22.496512 9.08585762 21.0607336 12.293642 20.3090614 11.9610764"></polygon>
                    <polygon id="路径" opacity="0.8" points="8.29919715 17.8672726 8.33298017 17.0463829 11.8210772 17.1979318 11.7872941 18.0188215"></polygon>
                    <polygon id="路径" opacity="0.8" points="21.6941653 26.9517854 20.9129329 27.2212056 19.7854245 23.9629049 20.5666569 23.6934847"></polygon>
                    <polygon id="路径" opacity="0.8" points="9.34224795 13.7333563 9.7307527 13.0008701 12.7289959 14.5795041 12.3404911 15.3119903"></polygon>
                    <polygon id="路径" opacity="0.8" points="17.4712875 27.5032549 16.6393806 27.4106417 17.006771 24.0849859 17.8386779 24.1733894"></polygon>
                    <polygon id="路径" opacity="0.8" points="12.0279982 10.4792653 12.6994357 9.97410238 14.6715196 12.6009494 14.0000821 13.1061123"></polygon>
                    <polygon id="路径" opacity="0.8" points="13.4595537 26.2150895 12.7416645 25.7730719 14.4477071 23.0073051 15.1698192 23.4451129"></polygon>
                    <polygon id="路径" opacity="0.8" points="15.8116966 8.69856607 16.6436035 8.52596875 17.2770352 11.6453496 16.4451283 11.817947"></polygon>
                    <polygon id="路径" opacity="0.8" points="10.4190818 23.3693385 9.95034234 22.6579008 12.6023095 20.9445566 13.071049 21.6559943"></polygon>
                    <polygon id="路径" opacity="0.8" points="19.9501168 8.69856607 20.7820237 8.90063123 20.0387972 11.8979311 19.2068903 11.6958659"></polygon>
                    <polygon id="路径" opacity="0.8" points="8.90306866 19.5469393 8.78905097 18.6965817 11.8253 18.2924514 11.9435406 19.1428089"></polygon>
                    <polygon id="路径" opacity="0.8" points="23.0328175 25.7772816 22.2811453 26.1982507 20.8031381 23.5587746 21.5548103 23.1378055"></polygon>
                    <polygon id="路径" opacity="0.8" points="23.6493576 10.4455878 24.3207952 10.9886379 22.4205002 13.3039678 21.7490627 12.7609177"></polygon>
                    <polygon id="路径" opacity="0.8" points="9.17333284 15.493007 9.43515126 14.6679076 12.2644793 15.5645718 12.0026609 16.3896712"></polygon>
                    <polygon id="路径" opacity="0.8" points="19.1646615 27.0149307 18.2947487 27.0738664 18.1004963 24.152341 18.9704091 24.0934053"></polygon>
                    <polygon id="路径" opacity="0.8" points="11.1285252 11.9779152 11.7281739 11.3380422 13.8269441 13.2913387 13.2315183 13.9312117"></polygon>
                    <polygon id="路径" opacity="0.8" points="15.1824878 26.4929291 14.3632495 26.1729926 15.4063003 23.5377261 16.2255386 23.8534529"></polygon>
                    <polygon id="路径" opacity="0.8" points="14.3716953 9.65837557 15.1951565 9.33001969 16.2170929 11.9105601 15.3978546 12.238916"></polygon>
                    <polygon id="路径" opacity="0.8" points="11.8379687 24.3459868 11.2298743 23.7061138 13.2399641 21.8285917 13.8480585 22.4726744"></polygon>
                    <polygon id="路径" opacity="0.8" points="18.2567428 8.95114752 19.1435471 9.0058735 18.9661863 11.6832368 18.0793819 11.6285109"></polygon>
                    <polygon id="路径" opacity="0.8" points="9.76031284 21.020331 9.48582579 20.1741832 12.0195524 19.3617129 12.2940395 20.2120704"></polygon>
                    <polygon id="路径" opacity="0.8" points="24.0885369 24.4470193 23.4002079 25.0153276 21.7321712 22.9862566 22.4247231 22.4179484"></polygon>
                    <polygon id="路径" opacity="0.8" points="22.0277726 9.95305393 22.8132279 10.3908618 21.5463645 12.6514657 20.7609093 12.2178676"></polygon>
                    <polygon id="路径" opacity="0.8" points="9.3126878 17.168464 9.4267055 16.2760095 11.9773236 16.6169945 11.8590831 17.5052392"></polygon>
                    <polygon id="路径" opacity="0.8" points="20.6722289 26.2740251 19.7980932 26.4929291 19.181553 24.0344696 20.0599116 23.8155657"></polygon>
                    <polygon id="路径" opacity="0.8" points="10.5415452 13.5355008 11.0356219 12.7735468 13.1175006 14.1164381 12.6276468 14.8783922"></polygon>
                    <polygon id="路径" opacity="0.8" points="16.8463016 26.4676709 15.9510516 26.2908639 16.4366825 23.8913402 17.3277097 24.0681472"></polygon>
                    <polygon id="路径" opacity="0.8" points="13.1850667 10.8034115 13.9620762 10.3235067 15.2204937 12.3525777 14.4434842 12.8324824"></polygon>
                    <polygon id="路径" opacity="0.8" points="13.3370903 25.023747 12.6023095 24.4806969 14.0169736 22.5905457 14.7517543 23.1335958"></polygon>
                    <polygon id="路径" opacity="0.8" points="16.7069467 9.47314918 17.6233111 9.36790691 17.8809067 11.6579787 16.9645422 11.7590113"></polygon>
                    <polygon id="路径" opacity="0.8" points="10.8118094 22.2579801 10.376853 21.4455098 12.3911657 20.380458 12.8261221 21.197138"></polygon>
                    <polygon id="路径" opacity="0.8" points="20.4188562 9.76782753 21.3014376 10.0667156 20.5793255 12.1631416 19.6967441 11.8642536"></polygon>
                    <polygon id="路径" opacity="0.8" points="9.72652982 18.7218399 9.68007816 17.7914982 11.8717517 17.6946753 11.9182034 18.625017"></polygon>
                    <polygon id="路径" opacity="0.8" points="21.9644294 25.322635 21.115631 25.7057169 20.2288267 23.7313719 21.081848 23.34829"></polygon>
                    <polygon id="路径" opacity="0.8" points="10.2501667 15.0972961 10.6133341 14.2343095 12.5600808 15.0467798 12.2011362 15.9139761"></polygon>
                    <polygon id="路径" opacity="0.8" points="18.4045435 26.1645732 17.4628418 26.1477344 17.5050706 24.0681472 18.4509952 24.0849859"></polygon>
                    <polygon id="路径" opacity="0.8" points="12.2602564 12.0789478 12.965477 11.4432845 14.3210208 12.9545635 13.6158002 13.5860171"></polygon>
                    <polygon id="路径" opacity="0.8" points="14.8615491 25.4152482 14.0085278 24.9942791 14.9080008 23.2051606 15.7567992 23.6261296"></polygon>
                    <polygon id="路径" opacity="0.8" points="15.3387343 10.2182644 16.2508759 9.94463455 16.8082957 11.8137373 15.8919313 12.0873672"></polygon>
                    <polygon id="路径" opacity="0.8" points="12.0068838 23.2514672 11.4156809 22.5021422 12.931694 21.3192191 13.5228969 22.068544"></polygon>
                    <polygon id="路径" opacity="0.8" points="18.8817287 9.85623104 19.8276533 9.99936053 19.5404976 11.8474148 18.5903501 11.7042853"></polygon>
                    <polygon id="路径" opacity="0.8" points="10.3684072 20.1110378 10.1530405 19.1764865 11.9604321 18.7723561 12.171576 19.7069075"></polygon>
                    <polygon id="路径" opacity="0.8" points="23.0243717 24.219696 22.2304707 24.7627462 21.2000886 23.2598865 21.9982125 22.7168364"></polygon>
                    <polygon id="路径" opacity="0.8" points="22.2051335 11.0223154 23.0074802 11.5611558 21.9939896 13.042967 21.1958657 12.5041266"></polygon>
                    <polygon id="路径" opacity="0.8" points="10.2332751 16.6127848 10.4401962 15.669814 12.1757989 16.0571056 11.964655 17.0000763"></polygon>
                    <polygon id="路径" opacity="0.8" points="19.8192076 25.6257328 18.8606143 25.7814913 18.5903501 24.0555181 19.5489434 23.9039692"></polygon>
                    <polygon id="路径" opacity="0.8" points="11.5972646 13.4218391 12.1926904 12.6556754 13.5355655 13.6996787 12.9401398 14.4658425"></polygon>
                    <polygon id="路径" opacity="0.8" points="16.352225 25.5373293 15.4147461 25.2636994 15.8919313 23.6598072 16.8294101 23.9292274"></polygon>
                    <polygon id="路径" opacity="0.8" points="14.1732201 11.135977 15.0473557 10.6981692 15.7779136 12.1505125 14.9037779 12.5925301"></polygon>
                    <polygon id="路径" opacity="0.8" points="13.2864157 23.9965824 12.551635 23.3440804 13.6242459 22.1485282 14.3590267 22.7968205"></polygon>
                    <polygon id="路径" opacity="0.8" points="17.4459503 10.1761675 18.4298808 10.1509094 18.4678867 11.7127047 17.4797333 11.7379628"></polygon>
                    <polygon id="路径" opacity="0.8" points="11.1876455 21.3192191 10.8033636 20.4141356 12.2264734 19.8163595 12.6149782 20.721443"></polygon>
                    <polygon id="路径" opacity="0.8" points="20.7904694 10.6939595 21.6941653 11.0938801 21.081848 12.4620296 20.1781522 12.062109"></polygon>
                    <polygon id="路径" opacity="0.8" points="10.4486419 18.0398699 10.4866478 17.0505926 11.9688779 17.1179477 11.9266491 18.107225"></polygon>
                    <polygon id="路径" opacity="0.8" points="21.0691794 24.9100853 20.1317005 25.2342315 19.6545153 23.8576626 20.5919942 23.5335164"></polygon>
                    <polygon id="路径" opacity="0.8" points="11.170754 14.785779 11.6352705 13.9017439 12.8936881 14.566875 12.4291716 15.4467004"></polygon>
                    <polygon id="路径" opacity="0.8" points="17.7753347 25.432087 16.7829585 25.3268447 16.9349821 23.9376468 17.9315812 24.042889"></polygon>
                    <polygon id="路径" opacity="0.8" points="13.2061811 12.171561 14.0085278 11.5695752 14.8235432 12.6598851 14.0211965 13.2618709"></polygon>
                    <polygon id="路径" opacity="0.8" points="14.5955078 24.5143744 13.7382636 23.9923727 14.4477071 22.8473368 15.3049513 23.3693385"></polygon>
                    <polygon id="路径" opacity="0.8" points="16.1410811 10.6813304 17.1250116 10.4792653 17.38683 11.763221 16.3986766 11.9652861"></polygon>
                    <polygon id="路径" opacity="0.8" points="12.1335701 22.3463836 11.5803731 21.5044455 12.6698756 20.8014271 13.2188497 21.6433653"></polygon>
                    <polygon id="路径" opacity="0.8" points="19.4095884 10.5802979 20.389296 10.8202502 20.0852488 12.0410606 19.1055412 11.8011082"></polygon>
                    <polygon id="路径" opacity="0.8" points="10.8413695 19.3575032 10.7062374 18.3598064 11.9393177 18.1956285 12.0744498 19.1933252"></polygon>
                    <polygon id="路径" opacity="0.8" points="22.1544589 24.0681472 21.2718775 24.560681 20.6722289 23.4914195 21.5590332 22.9988857"></polygon>
                    <polygon id="矩形" opacity="0.8" transform="translate(22.399094, 12.655540) rotate(-50.750000) translate(-22.399094, -12.655540) " points="21.7913596 12.1463889 23.0052708 12.1482497 23.006828 13.164691 21.7929167 13.1628302"></polygon>
                    <polygon id="矩形" opacity="0.8" transform="translate(11.672160, 15.828591) rotate(-72.280000) translate(-11.672160, -15.828591) " points="11.1641999 15.226544 12.1790297 15.2274654 12.1801194 16.4306374 11.1652895 16.429716"></polygon>
                    <polygon id="矩形" opacity="0.8" transform="translate(18.561914, 24.604630) rotate(-3.820000) translate(-18.561914, -24.604630) " points="18.0529404 24.0088445 19.0706398 24.0090557 19.0708879 25.2004148 18.0531884 25.2002035"></polygon>
                    <polygon id="矩形" opacity="0.8" transform="translate(13.183531, 13.284504) rotate(-46.910000) translate(-13.183531, -13.284504) " points="12.6724961 12.6954755 13.6927306 12.6970676 13.6945661 13.8735334 12.6743316 13.8719414"></polygon>
                    <polygon id="矩形" opacity="0.8" transform="translate(15.635718, 24.138224) rotate(-68.450000) translate(-15.635718, -24.138224) " points="15.0497782 23.6268451 16.2205668 23.6280975 16.2216571 24.6496034 15.0508684 24.6483509"></polygon>
                    <path d="M28.7970456,13.5565493 C31.2622137,13.5565493 33.2606273,15.5487224 33.2606273,18.0061924 C33.2606273,20.4636625 31.2622137,22.4558356 28.7970456,22.4558356 C26.3318774,22.4558356 24.3334638,20.4636625 24.3334638,18.0061924 C24.3357918,15.5496843 26.3328424,13.55887 28.7970456,13.5565493 Z M28.7970456,15.0383604 C27.1672416,15.0383604 25.8449676,16.3534679 25.8411064,17.9781779 C25.837262,19.6028879 27.1532843,20.9241713 28.7830698,20.9319282 C30.4128553,20.9396172 31.7414185,19.6308655 31.75306,18.0061924 C31.7586861,17.2210163 31.4497352,16.4660716 30.894764,15.9088817 C30.3397928,15.3516919 29.5847014,15.0383604 28.7970456,15.0383604 L28.7970456,15.0383604 Z" id="形状"></path>
                    <polygon id="路径" points="36.2335332 17.5094489 36.2335332 22.4558356 34.7428574 22.4558356 34.7428574 13.5565493 39.7005158 18.4987262 39.7005158 13.5565493 41.1911917 13.5565493 41.1911917 22.4558356"></polygon>
                    <path d="M50.2914931,21.1508314 C49.0153049,22.424437 47.0950531,22.8060284 45.4265231,22.1175956 C43.7579931,21.4291627 42.6699442,19.8063512 42.6699442,18.0061924 C42.6699442,16.2060336 43.7579931,14.5832221 45.4265231,13.8947893 C47.0950531,13.2063565 49.0153049,13.5879478 50.2914931,14.8615534 L49.2399966,15.9097664 C48.0794869,14.7762545 46.2188331,14.7888735 45.0739017,15.9380211 C43.9289702,17.0871686 43.9289702,18.942055 45.0739017,20.0912025 C46.2188331,21.2403501 48.0794869,21.2529691 49.2399966,20.1194572 L50.2914931,21.1508314 Z" id="路径"></path>
                    <polygon id="路径" points="56.2415278 15.0383604 53.2855134 15.0383604 53.2855134 17.2652868 55.7643426 17.2652868 55.7643426 18.747098 53.2855134 18.747098 53.2855134 20.9698147 56.7567189 20.9698147 56.2626422 22.4558356 51.7779461 22.4558356 51.7779461 13.5565493 56.7567189 13.5565493"></polygon>
                    <polygon id="路径" points="59.7127333 17.5094489 59.7127333 22.4558356 58.2262804 22.4558356 58.2262804 13.5565493 63.1797159 18.4987262 63.1797159 13.5565493 64.6661689 13.5565493 64.6661689 22.4558356"></polygon>
                    <polygon id="路径" points="73.0950328 15.0383604 70.3670538 15.0383604 70.3670538 22.4558356 68.8806008 22.4558356 68.8806008 15.0383604 66.1526218 15.0383604 66.1526218 13.5565493 73.0950328 13.5565493"></polygon>
                    <path d="M76.0679387,22.4558356 L74.5814857,22.4558356 L74.5814857,13.5565493 L77.6768551,13.5565493 C79.2313605,13.5430781 80.5907599,14.5978415 80.9592625,16.1033821 C81.3277651,17.6089227 80.6084604,19.169306 79.2224283,19.8710854 L80.7806702,22.4726744 L78.7959177,22.4726744 L77.4488197,20.2289092 L76.0510472,20.2289092 L76.0679387,22.4558356 Z M77.6768551,15.0383604 L76.0679387,15.0383604 L76.0679387,18.747098 L77.6768551,18.747098 C78.3625777,18.7796772 79.0106713,18.4335346 79.363316,17.8463703 C79.7159606,17.259206 79.7159606,16.5262524 79.363316,15.9390881 C79.0106713,15.3519238 78.3625777,15.0057812 77.6768551,15.0383604 Z" id="形状"></path>
                    <path d="M89.6951651,22.4558356 L87.9595623,22.4558356 L87.3556908,20.9698147 L84.0998521,20.9698147 L83.4959806,22.4558356 L81.7603779,22.4558356 L85.7298829,13.5565493 L89.6951651,22.4558356 Z M84.7163923,19.4880036 L86.7391507,19.4880036 L85.7298829,17.0169151 L84.7163923,19.4880036 Z" id="形状"></path>
                    <polygon id="路径" points="96.6417989 15.0383604 93.9180428 15.0383604 93.9180428 22.4558356 92.427367 22.4558356 92.427367 15.0383604 89.6951651 15.0383604 89.6951651 13.5565493 96.6333532 13.5565493"></polygon>
                    <path d="M101.599457,13.5565493 C104.064625,13.5565493 106.063039,15.5487224 106.063039,18.0061924 C106.063039,20.4636625 104.064625,22.4558356 101.599457,22.4558356 C99.1342892,22.4558356 97.1358756,20.4636625 97.1358756,18.0061924 C97.1405232,15.550644 99.1362169,13.5611824 101.599457,13.5565493 L101.599457,13.5565493 Z M101.599457,15.0383604 C99.9724517,15.0499876 98.6607538,16.3701477 98.6646331,17.9921097 C98.6685296,19.6140717 99.9865414,20.9279677 101.613584,20.931852 C103.240627,20.9357191 104.564923,19.6281174 104.576586,18.0061924 C104.582259,17.2173544 104.27042,16.4591846 103.710866,15.9013776 C103.151311,15.3435706 102.390766,15.0327054 101.599457,15.0383604 L101.599457,15.0383604 Z" id="形状"></path>
                    <path d="M109.035945,22.4558356 L107.549492,22.4558356 L107.549492,13.5565493 L110.640639,13.5565493 C112.195946,13.5410792 113.5572,14.5951982 113.926848,16.1013019 C114.296496,17.6074057 113.577217,19.1689721 112.190435,19.8710854 L113.765568,22.4558356 L111.785038,22.4558356 L110.454832,20.2289092 L109.035945,20.2289092 L109.035945,22.4558356 Z M110.640639,15.0383604 L109.035945,15.0383604 L109.035945,18.747098 L110.640639,18.747098 C111.326361,18.7796772 111.974455,18.4335346 112.327099,17.8463703 C112.679744,17.259206 112.679744,16.5262524 112.327099,15.9390881 C111.974455,15.3519238 111.326361,15.0057812 110.640639,15.0383604 Z" id="形状"></path>
                    <g id="编组" transform="translate(84.724838, 25.086892)" font-family="Helvetica" font-size="4.21633855" font-weight="normal">
                        <text id="b">
                            <tspan x="0" y="4">b</tspan>
                        </text>
                        <text id="y">
                            <tspan x="2.37325727" y="4">y</tspan>
                        </text>
                        <text id="A">
                            <tspan x="5.25748275" y="4">A</tspan>
                        </text>
                        <text id="laddin">
                            <tspan x="7.82921528" y="4">laddin</tspan>
                        </text>
                        <text id="D">
                            <tspan x="18.9564981" y="4">D</tspan>
                        </text>
                        <text id="A">
                            <tspan x="21.7098143" y="4">A</tspan>
                        </text>
                        <text id="O">
                            <tspan x="24.2308723" y="4">O</tspan>
                        </text>
                    </g>
                </g>
                <rect id="矩形" stroke="#A0A9BD" stroke-width="0.5" opacity="0" x="0" y="0" width="141" height="47" rx="3"></rect>
            </g>
        </g>
    </g>
</svg>